<?xml version="1.0" encoding="utf-8"?>
<!-- Generator: Adobe Illustrator 19.2.1, SVG Export Plug-In . SVG Version: 6.00 Build 0)  -->
<svg version="1.1" id="Layer_1" xmlns="http://www.w3.org/2000/svg" xmlns:xlink="http://www.w3.org/1999/xlink" x="0px" y="0px"
	 viewBox="0 0 100 100" style="enable-background:new 0 0 100 100;" xml:space="preserve">
<g>
	<path d="M94.3,65.6c0-15.5,0-30.7,0-46.3c-3.8,1.2-7.4,2.4-11.2,3.5c0,2.9,0,5.5,0,8.2c0,2,0,3.9,0,5.9c0,0.5,0,1,0,1.5
		c-0.1,1.7-1.5,1.7-2.6,2.1c-1.4,0.4-2.9,1.5-4.4,0.3c-1.1-0.9-0.8-2.3,0.4-3.1c0.4-0.2,0.9-0.3,1.4-0.5c0.4-0.1,0.7-0.3,1.3-0.5
		c0-4.1,0-8.2,0-12.6c-3.7,1.2-7.2,2.3-10.8,3.4c0,4.3,0,8.3,0,12.6c0.9-0.2,1.6-0.4,2.3-0.6c1.1-0.2,1.9,0.3,2.3,1.3
		c0.3,1,0,1.9-0.9,2.2c-1.8,0.7-3.7,1.3-5.6,1.7c-1.2,0.3-2.1-0.7-2.1-2.4c-0.1-2.9,0-5.7,0-8.6c0-1.5,0-3.1,0-5
		c-4.2,1.3-8,2.5-12,3.8c-0.1,0.9-0.1,1.8-0.1,2.7c0,6.9,0,13.9,0,20.8c0,0.8,0.1,1.7-0.3,2.4c-0.3,0.6-1.2,1.2-1.8,1.2
		c-0.5,0-1.3-0.6-1.6-1.2C48,57.9,48,57,48,56.2c0-6.9,0-13.7,0-20.6c0-0.9,0-1.8,0-2.8c-3.5-1.1-6.8-2.2-10.1-3.2
		c-7.7-2.4-15.4-4.9-23-7.3c-0.5-0.1-0.9-0.3-1.4-0.5c-0.9-0.5-1.6-1.2-1.2-2.4c0.4-1.1,1.4-1.6,2.5-1.2c2.1,0.6,4.2,1.3,6.3,2
		c9,2.9,18,5.7,27,8.6c1.2,0.4,2.3,0.5,3.5,0c2.3-0.8,4.6-1.5,7.3-2.3c-0.6-0.4-0.9-0.7-1.3-0.8C45.5,21.7,33.4,17.8,21.2,14
		c-0.7-0.2-1.5-0.3-2.1-0.1c-4.4,1.3-8.8,2.7-13.3,4.2c0,16,0,31.8,0,47.8c1.5,0.5,3,1.1,4.9,1.7c0-1.7,0-3.2,0-4.6
		c0-2.4,0-4.9,0-7.3c0-2.1,0.6-2.8,1.9-2.8c1.3,0,1.7,0.6,1.7,2.7c0,3.6,0,7.2,0,10.8c0,0.8,0,1.6,0,2.6c1.7,0.7,3.4,1.3,5,1.9
		c0.5,0.2,0.9,0.3,1.4,0.5c0.9,0.5,1.3,1.3,1,2.2c-0.4,1-1.2,1.4-2.2,1.1c-0.9-0.2-1.7-0.6-2.5-0.9c-4.2-1.4-8.3-2.8-12.5-4.2
		c-2.6-0.9-2.7-1-2.7-3.6c0-16,0-32,0-48c0-2.7,0.1-2.7,2.7-3.6c14.7-4.7,29.3-9.3,44-14c1.1-0.4,2.2-0.4,3.3,0
		C66.4,5,81.1,9.7,95.8,14.4c2.3,0.7,2.4,0.9,2.4,3.3c0,16.1,0,32.2,0,48.3c0,2.6-0.1,2.7-2.5,3.5C94.9,69.7,94,70,93,70.3
		c-1.5,0.4-2.4,0-2.8-1.2c-0.4-1,0.2-1.9,1.7-2.5c0.4-0.2,0.8-0.2,1.2-0.4C93.4,66,93.8,65.8,94.3,65.6z M74.4,21.5
		c-1-0.4-1.6-0.7-2.2-0.9c-11.9-3.8-23.7-7.5-35.6-11.3C36,9.1,35.2,8.8,34.5,9c-2.4,0.6-4.9,1.4-7.6,2.3c0.6,0.4,0.7,0.7,0.9,0.7
		c12.4,4,24.8,7.9,37.2,11.8c0.6,0.2,1.3,0.2,1.9,0.1C69.3,23.2,71.6,22.4,74.4,21.5z M89.3,16.7c-0.8-0.4-1-0.7-1.3-0.8
		C75.7,12.1,63.5,8.2,51.2,4.3c-0.5-0.1-1-0.3-1.4-0.2c-2.5,0.7-5,1.5-7.7,2.3C42.5,6.8,42.5,7,42.6,7c12.5,4,25,7.9,37.5,11.9
		c0.5,0.2,1.2,0.4,1.6,0.2C84.2,18.4,86.5,17.6,89.3,16.7z"/>
	<path d="M39.4,74.9c6.3,0,12.2,0.2,18-0.1c4.1-0.2,6.7-3.2,7.4-7.3c0.1-0.5,0.1-1,0.1-1.5c0.2-1.8,0.8-2.5,2.1-2.4
		c1.3,0.1,1.8,0.8,1.8,2.6c0.1,5.6-3.8,10.8-9.2,12.2c-1.3,0.3-2.7,0.5-4.1,0.5c-5.5,0.1-11.1,0-16.7,0c-3,0-3.3-0.4-3.4-3.4
		c0-0.9,0-1.8,0-3.2C30,76,25,79.7,19.7,83.3c5.2,3.6,10.2,7.1,15.6,10.9c0.1-1.5,0.1-2.5,0.1-3.5c0-2.7,0.4-3.1,3.2-3.1
		c7.5,0,15,0.1,22.5-0.1c2.5,0,5.1-0.3,7.4-1c7.9-2.5,13-9.7,13-17.9c0-6.8,0-13.5,0-20.3c0-0.7,0-1.5,0.2-2.2c0.2-1,0.9-1.5,2-1.4
		c0.9,0.1,1.5,0.5,1.7,1.5c0.1,0.8,0.2,1.6,0.2,2.4c0,6,0.1,11.9,0,17.9c0,4.6-0.6,9.1-3,13.2c-4.6,7.8-11.6,11.7-20.6,11.9
		c-6.6,0.1-13.2,0-19.8,0c-0.9,0-1.8,0-3,0c0,1.5,0,2.9,0,4.3c0,0.7,0.1,1.5-0.1,2.2c-0.3,1.8-1.7,2.4-3.2,1.4
		c-2.5-1.7-5-3.4-7.4-5.2c-4.2-2.9-8.4-5.9-12.6-8.9c-2.2-1.5-2.2-2.9-0.1-4.4c6.5-4.6,12.9-9.1,19.5-13.6c0.7-0.5,1.9-0.9,2.6-0.7
		c1.3,0.3,1.4,1.6,1.3,2.8C39.4,71.4,39.4,73.1,39.4,74.9z"/>
	<path d="M21.5,66.5c3.6-8.9,7-17.5,10.6-26.4c-4.7-0.3-9.2,0-13.8-0.2c0-1.9,0-3.7,0-5.6c6.8,0,13.5,0,20.4,0
		c0.2,2.3,0.5,4.5-0.3,6.7c-3.3,8.1-6.6,16.3-9.9,24.4c-0.2,0.4-0.4,0.7-0.6,1.2C25.9,66.5,23.9,66.5,21.5,66.5z"/>
	<path d="M14.2,48.5c-0.1,1-0.5,1.7-1.6,1.8c-1.1,0-1.7-0.5-1.9-1.5c-0.2-1,0.7-1.9,1.7-1.9C13.6,46.8,14,47.5,14.2,48.5z"/>
</g>
</svg>
