<?xml version="1.0" encoding="utf-8"?>
<!-- Generator: Adobe Illustrator 19.2.1, SVG Export Plug-In . SVG Version: 6.00 Build 0)  -->
<svg version="1.1" id="Layer_1" xmlns="http://www.w3.org/2000/svg" xmlns:xlink="http://www.w3.org/1999/xlink" x="0px" y="0px"
	 viewBox="0 0 100 100" style="enable-background:new 0 0 100 100;" xml:space="preserve">
<g>
	<path d="M61.4,79.9c0-1.6,0-3.1,0-4.5c0-0.5,0-1.1,0.1-1.6c0.2-0.8,0.9-1.4,1.6-1.2c0.7,0.2,1.2,0.6,1.2,1.4c0,1.5,0,2.9,0.1,4.4
		c0,1.5,0.1,1.6,1.6,1.1c9.5-3,19-5.9,28.5-9c3.1-1,2.6-0.2,2.6-3.5c0-10.4,0-20.8,0-31.2c0-0.4,0-0.7,0-1.2c-0.4,0-0.7,0-0.9,0.1
		c-2.2,0.7-4.4,1.5-6.6,2.1c-1,0.3-1.3,0.8-1.2,1.7c0,3.1,0,6.2,0,9.4c0,2,0,2-1.9,2.8c-0.6,0.2-1.2,0.5-1.9,0.7
		c-0.9,0.2-1.7-0.1-2-0.8c-0.3-0.8,0-1.7,1-1.9c1.9-0.3,2-1.5,1.9-3c-0.1-2.4,0-4.8,0-7.3c-1.1,0.3-1.9,0.6-2.8,0.8
		c-1.6,0.5-3.3,1-4.9,1.5c-0.5,0.2-0.9,0.4-0.9,1c0,2.9,0,5.9,0,9c0.7-0.2,1.3-0.4,1.9-0.5c1-0.2,1.6,0.1,1.9,0.9
		c0.3,0.8,0,1.5-1,1.8c-1.3,0.5-2.5,0.9-3.8,1.3c-1,0.3-1.7-0.2-1.8-1.2c-0.1-0.5-0.1-1-0.1-1.5c0-2.8,0-5.6,0-8.5
		c0-1.1-0.1-1.2-1.2-0.9c-2.3,0.7-4.7,1.4-7,2.2c-1.2,0.4-1.3,0.4-1.3,1.8c0,6.7,0,13.5,0,20.2c0,0.6,0,1.1-0.1,1.7
		c-0.1,0.8-0.5,1.2-1.3,1.3c-0.8,0.1-1.4-0.4-1.5-1.3c-0.1-0.5,0-1-0.1-1.5c0-6.7,0-13.4,0-20c0-2,0.2-1.7-1.6-2.2
		c-7.9-2.5-15.7-5-23.6-7.5c-0.5-0.2-1-0.3-1.5-0.6c-0.6-0.3-0.9-0.9-0.7-1.5c0.2-0.6,0.6-1.1,1.3-1c0.6,0,1.2,0.2,1.8,0.4
		c8,2.5,16.1,5.1,24.1,7.7c1,0.3,2,0.4,3,0c1.8-0.7,3.7-1.2,5.9-1.9c-1-0.4-1.7-0.6-2.4-0.9C59.1,36,50.5,33.3,42,30.6
		c-1.5-0.5-2.9-0.5-4.5,0c-2.4,0.9-4.9,1.6-7.3,2.4c-1.4,0.4-1.4,0.5-1.4,1.9c0,1.7,0,3.4,0,5.1c0,1.7-0.5,2.5-1.5,2.6
		c-1,0-1.6-0.8-1.6-2.5c0-2.3,0-4.7,0-7c0-1.8,0.2-2,2-2.6c7.2-2.3,14.4-4.6,21.6-6.9c4-1.3,8-2.7,12-4.1c0.9-0.3,1.7-0.3,2.7,0
		c11.4,3.6,22.8,7.2,34.3,10.7c1.7,0.5,1.9,0.9,1.8,2.7c0,0.7,0,1.3,0,2c0,11.3,0,22.5,0,33.8c0,0.5,0,1,0,1.5
		c0,1.5-0.1,1.6-1.5,2.1c-3.9,1.2-7.8,2.5-11.7,3.7c-7.5,2.3-14.9,4.7-22.4,7.1c-1.1,0.4-2.1,0.4-3.2,0C50,79.5,38.9,76,27.8,72.4
		c-1.9-0.6-2-0.7-2-2.7c0-1.1,0-2.2,0-3.3c0-0.4,0-0.7,0.1-1.1c0.2-0.7,0.6-1.2,1.4-1.3c0.8,0,1.2,0.5,1.4,1.2
		c0.1,0.3,0.1,0.7,0.1,1.1c0,0.6,0,1.1,0,1.7c0,1.7,0,1.7,1.5,2.2c3.7,1.2,7.5,2.3,11.2,3.5c5.9,1.9,11.7,3.8,17.6,5.6
		C59.8,79.6,60.5,79.7,61.4,79.9z M93.5,32.2c-0.5-0.3-0.8-0.5-1.2-0.6c-9.5-3-19.1-6-28.6-9c-0.5-0.2-1.1-0.3-1.6-0.1
		c-1.8,0.5-3.6,1.2-5.6,1.9c0.6,0.3,1,0.5,1.4,0.6c9.4,3,18.7,5.9,28.1,8.9c0.5,0.1,1,0.3,1.4,0.2C89.3,33.6,91.3,32.9,93.5,32.2z
		 M81.4,36c0-0.1,0-0.2,0-0.3c-0.4-0.2-0.8-0.3-1.2-0.5c-8.5-2.7-17.1-5.3-25.6-8.2c-2.3-0.8-4.3-0.9-6.5,0.1
		c-0.8,0.4-1.7,0.7-2.8,1.1c0.4,0.3,0.5,0.4,0.7,0.5c9.5,3,18.9,6,28.4,9c0.4,0.1,1,0.2,1.4,0.1C77.7,37.3,79.5,36.6,81.4,36z"/>
	<path d="M28,47.8c-4.4,0-8.8,0-13.2,0c-0.5,0-1,0-1.5-0.1c-0.7-0.2-1.2-0.7-1.2-1.4c0-0.8,0.4-1.3,1.2-1.4c0.5-0.1,1-0.1,1.5-0.1
		c8.8,0,17.6,0,26.4,0c0.5,0,1,0,1.5,0.1c0.8,0.1,1.1,0.7,1.2,1.4c0.1,0.7-0.6,1.4-1.3,1.5c-0.5,0.1-1,0-1.5,0
		C36.7,47.8,32.4,47.8,28,47.8z"/>
	<path d="M13.9,54.7c-3.8,0-7.6,0-11.4,0c-0.5,0-1.2,0-1.6-0.2c-0.4-0.2-0.8-0.8-0.9-1.2c-0.1-0.6,0.3-1.2,0.9-1.4
		c0.5-0.2,1.1-0.2,1.6-0.2c7.6,0,15.2,0,22.8,0c0.4,0,0.9,0,1.3,0.1c0.9,0.2,1.2,0.7,1.2,1.6c0,0.8-0.6,1.2-1.3,1.3
		c-0.5,0.1-1,0.1-1.5,0.1C21.3,54.7,17.6,54.7,13.9,54.7z"/>
	<path d="M37.5,19.7c-3.6,0-7.2,0-10.8,0c-0.5,0-1.1,0-1.6-0.1c-1-0.2-1.3-0.7-1.3-1.5c0-0.8,0.6-1.3,1.4-1.5c0.4-0.1,0.7,0,1.1,0
		c7.6,0,15.2,0,22.8,0c0.4,0,0.7,0,1.1,0c0.8,0.1,1.4,0.8,1.4,1.5c0,0.7-0.4,1.3-1.3,1.5c-0.5,0.1-1.1,0.1-1.6,0.1
		C44.9,19.7,41.2,19.7,37.5,19.7z"/>
	<path d="M26,61.7c-2.2,0-4.4,0-6.6,0c-0.4,0-0.7,0-1.1,0c-1-0.1-1.6-0.6-1.7-1.4c0-0.8,0.6-1.5,1.6-1.7c0.4-0.1,0.7,0,1.1,0
		c4.5,0,8.9,0,13.4,0c0.5,0,1,0,1.5,0.1c0.8,0.2,1.3,0.7,1.3,1.5c0,0.7-0.5,1.3-1.4,1.4c-0.5,0.1-1,0-1.5,0
		C30.4,61.7,28.2,61.7,26,61.7z"/>
	<path d="M19,27.2c-1.9,0-3.8,0-5.7,0c-1.2,0-1.8-0.5-1.8-1.3c0-0.9,0.7-1.5,1.9-1.5c3.8,0,7.6,0,11.3,0c0.2,0,0.5,0,0.7,0.1
		c0.7,0.2,1.2,0.8,1.1,1.5c-0.1,0.7-0.5,1.2-1.3,1.3c-0.5,0-1.1,0-1.6,0C22.1,27.3,20.5,27.2,19,27.2C19,27.2,19,27.2,19,27.2z"/>
	<path d="M14.8,60.2c0,0.8-0.8,1.5-1.6,1.4c-0.7-0.1-1.5-0.9-1.4-1.6c0.1-0.8,0.8-1.3,1.7-1.3C14.3,58.9,14.8,59.5,14.8,60.2z"/>
	<path d="M10.2,46.2c0,0.9-0.7,1.6-1.5,1.5c-0.7-0.1-1.4-0.8-1.4-1.5c0-0.8,0.7-1.4,1.6-1.4C9.8,44.8,10.2,45.3,10.2,46.2z"/>
</g>
</svg>
