<?xml version="1.0" encoding="utf-8"?>
<!-- Generator: Adobe Illustrator 19.2.1, SVG Export Plug-In . SVG Version: 6.00 Build 0)  -->
<svg version="1.1" id="Layer_1" xmlns="http://www.w3.org/2000/svg" xmlns:xlink="http://www.w3.org/1999/xlink" x="0px" y="0px"
	 viewBox="0 0 100 100" style="enable-background:new 0 0 100 100;" xml:space="preserve">
<g>
	<path d="M33.4,93.2c-1.5,3.7-4.3,4.5-7.5,4.5c-4.9-0.1-9.8,0-14.7,0c-5,0-6.8-1.9-6.8-6.9c0-9.4,0-18.9,0-28.3c0-4.3,2-6.4,6.3-6.4
		c5.1,0,10.1,0.1,15.2,0c2.6,0,4.8,0.3,7,3.1c0.7-1,1.2-1.9,1.9-2.7c3.8-4.5,8.5-7.7,14-9.5c1.4-0.5,1.7-1.3,1.7-2.6
		c-0.1-5.9,0-11.8-0.1-17.7c0-2.2,0.8-3,3-3c14.6,0.1,29.2,0.1,43.8,0c2,0,2.9,0.7,2.9,2.8c0,22.9,0,45.7,0,68.6
		c0,2.1-0.8,2.9-2.8,2.9c-18.2,0-36.4,0-54.6,0C39,97.7,36,96.2,33.4,93.2z M50.8,50.9c-0.3-0.1-0.5-0.3-0.8-0.4c-1,0.4-2,0.7-3,1.1
		c-5,2-8.7,5.7-12.2,9.6c-0.9,1-1.5,2.5-1.5,3.7c-0.1,6.7-0.1,13.3-0.1,20c0,4.6,4.3,9.1,8.9,9.2c11.4,0.1,22.8,0,34.2,0
		c0.4,0,1,0.1,1.2-0.1c0.8-0.8,2.2-1.6,2.2-2.5c0-0.9-1.1-2-2-2.7c-0.5-0.4-1.5-0.2-2.2-0.2c-3.8,0-7.6,0-11.4,0
		c-1.3,0-2.8,0.2-2.9-1.6c-0.1-2,1.7-1.7,3-1.7c0.5,0,1,0,1.5,0c5.2,0,10.5,0,15.7,0c0.6,0,1.2,0,1.8,0c1.8-0.1,3.2-0.9,3.1-2.9
		c0-2-1.4-2.7-3.3-2.7c-6.6,0-13.2,0-19.7-0.1c-0.7,0-1.4-1-2.1-1.6c0.7-0.6,1.3-1.3,2-1.7c0.5-0.3,1.3-0.1,2-0.1
		c7.3,0,14.5,0,21.8,0c2,0,3.4-0.9,3.3-2.9c0-2-1.5-2.7-3.3-2.8c-0.6,0-1.2,0-1.8,0c-7.1,0-14.2,0-21.3,0c-1.3,0-2.9,0-2.7-1.7
		c0.1-0.7,1.8-1.6,2.8-1.6c5.6-0.2,11.3-0.1,16.9-0.1c1.9,0,3.2-0.6,3.3-2.6c0.1-2.2-1.4-2.9-3.2-3c-0.7-0.1-1.3,0-2,0
		c-9.2,0-18.4,0-27.6,0c-2.9,0-3-0.4-2.2-3.1C50,55.9,50.3,53.4,50.8,50.9z M70.8,27.9c0,10,0,20,0,30.1c1.8,0,3.4,0,5,0
		c1.7,0,3.4,0,5.1,0c4.8,0.2,7.7,3,7,7.5c-0.1,0.5,0.1,1.1,0.2,1.6c0.3,0,0.6,0,0.8,0c0.1-0.8,0.3-1.7,0.3-2.5c0-5.6,0-11.1,0-16.7
		c0-0.7-0.2-1.4,0.1-2c0.3-0.6,1-1.5,1.5-1.5c0.6,0,1.4,0.7,1.7,1.4c0.3,0.6,0.2,1.5,0.2,2.2c0,6.5,0,13,0,19.5c0,0.8,0,1.7,0.2,2.5
		c1.6,5.3,1.1,6.7-3.4,9.6c0.9,5.7-0.1,7.1-6.2,9.3c0,1.6,0,3.3,0,5c4.4,0,8.7,0,13,0c0-22.1,0-44,0-66
		C87.8,27.9,79.4,27.9,70.8,27.9z M17,59.5c-2.4,0-4.3,0-6.2,0c-2.1,0-3.1,0.9-3.1,3.1c0,9.5,0,19.1,0,28.6c0,2.2,0.9,3,3,3
		c5.1-0.1,10.3,0,15.4,0c3.2,0,3.5-0.4,3.5-3.5c0-8.1,0-16.2,0-24.3c0-7.2,1-6.9-7-6.9c-1.8,0-2.3,0.5-2.3,2.3
		c0.1,6.1,0,12.1,0,18.2c0,1.2,0.3,2.8-1.6,2.8C17,82.8,17,81.4,17,80c0-4.3,0-8.6,0-12.9C17,64.7,17,62.3,17,59.5z M60.5,57.9
		c0-9.7,0-19.1-0.1-28.5c0-0.5-0.7-1.4-1.2-1.4c-1.7-0.2-3.4-0.1-5.2-0.1c0,10.2,0,20.1,0,30C56.1,57.9,58.1,57.9,60.5,57.9z"/>
	<path d="M19,2.3c13.2,0,22.3,12.9,17.7,25.3c-2.8,7.6-7.7,14-12.7,20.3c-1,1.3-2.1,2.6-3.2,3.9c-1.2,1.4-2.5,1.5-3.6,0.1
		C11.2,44.7,5.1,37.4,1.5,28.5C-3.7,15.8,5.4,2.3,19,2.3z M19,48.2c1.2-1.5,2.2-2.6,3.1-3.8c4.5-6,9.2-11.9,11.6-19.1
		c2-6.2-0.6-12.9-6-16.6C22.3,4.9,15,5.2,9.5,9.3c-5,3.7-7.1,10.6-5,16.5C7.6,34.2,13.2,41,19,48.2z"/>
	<path d="M88.6,39.7c1.1-0.7,1.8-1.5,2.3-1.4c0.6,0.1,1,1,1.5,1.5c-0.5,0.5-1,1.3-1.6,1.4C90.3,41.2,89.7,40.5,88.6,39.7z"/>
	<path d="M18.8,90.5c-0.8-0.9-1.8-1.7-1.6-2c0.2-0.7,1-1.4,1.7-1.6c0.4-0.1,1.4,0.9,1.4,1.5C20.3,88.9,19.5,89.6,18.8,90.5z"/>
	<path d="M28.2,21.3c0,5.3-4,9.3-9.2,9.2c-5.1,0-9.1-4-9.1-9.1c0-5.3,3.8-9.3,8.9-9.2C24.1,12.2,28.1,16.1,28.2,21.3z M18.8,27.3
		c3.4,0,6.3-2.8,6.2-6c-0.1-3.1-2.8-5.9-5.8-5.9c-3.3-0.1-6.3,2.8-6.2,6.1C13.1,24.7,15.7,27.3,18.8,27.3z"/>
</g>
</svg>
