<?xml version="1.0" encoding="utf-8"?>
<!-- Generator: Adobe Illustrator 19.2.1, SVG Export Plug-In . SVG Version: 6.00 Build 0)  -->
<svg version="1.1" id="Layer_1" xmlns="http://www.w3.org/2000/svg" xmlns:xlink="http://www.w3.org/1999/xlink" x="0px" y="0px"
	 viewBox="0 0 100 100" style="enable-background:new 0 0 100 100;" xml:space="preserve">
<g>
	<path d="M55.8,76.4c-1,0-1.9,0-2.7,0c-13.5,0-27.1,0-40.6,0c-4.4,0-7-2.6-7-7c0-11.7,0-23.5,0-35.2c0-4.3,2.4-6.8,6.7-6.8
		c16.1,0,32.3,0,48.4-0.1c3.5,0,6.9,2.7,6.8,6.8c-0.1,14.8,0,29.6-0.1,44.4c0,3.1-1.7,4.7-4.6,4.6c-1.3-0.1-2.1-0.9-2.9-1.8
		c-0.7-0.8-1.3-1.6-1.9-2.4C57.2,78.1,56.5,77.3,55.8,76.4z M62.9,79.6c0.3,0,0.5-0.1,0.8-0.1c0.1-0.8,0.3-1.6,0.3-2.4
		c0-13.9,0-27.7,0-41.6c0-3.9-1.1-5-5.1-5c-13.7,0-27.4,0-41.1,0c-1.7,0-3.5,0-5.2,0c-2.5,0.1-3.7,1.2-4,3.7c0,0.4,0,0.8,0,1.2
		c0,10.9,0,21.7,0,32.6c0,0.6,0,1.3,0.1,1.9c0.3,1.8,1.4,2.7,3.2,2.9c0.8,0.1,1.6,0,2.4,0c13.4,0,26.8,0,40.2,0c0.9,0,1.9,0,2.8,0
		C59.2,75.2,61.1,77.4,62.9,79.6z"/>
	<path d="M79,75.2c-1-2.8-0.8-26.4,0.2-28.2c3.5-0.8,5.8-0.1,11.6,3.8c0.1-0.7,0.2-1.3,0.1-1.8c-0.1-4.7,0.1-9.5-0.5-14.1
		C89.3,24.3,84,16,75.4,10c-5.1-3.6-10.7-5.6-16.9-6c-14.9-1-26,5.3-33.8,17.8c-0.1,0.2-0.2,0.4-0.3,0.6c-0.9,1.4-1.9,1.8-2.9,1.3
		c-0.9-0.6-1.1-1.8-0.3-3.2c3.3-5.9,7.7-10.8,13.4-14.4c22.8-14.5,53-1.8,59,24.8c0.6,2.5,0.9,5.1,0.9,7.7c0.1,7.6,0.1,15.1,0,22.7
		c0,6.5-4.2,12.1-10.4,13.9C82.5,75.6,80.7,76.1,79,75.2z M82.2,71.5c5.4-0.9,9.2-5.9,8.7-11.3c-0.4-4.9-4.6-9.3-8.7-9.2
		C82.2,57.8,82.2,64.6,82.2,71.5z"/>
	<path d="M58.3,90.1c3.2-1.1,6.3-2,9.8-1.8c0.5,2,1,3.9,1.6,5.9c3.3-0.5,6.1-2,8.8-3.7c3.4-2.2,6.2-5.1,8.3-8.6
		c0.5-0.8,1.3-1.5,1.8-2.1c2.5,1,2.7,1.7,1.6,3.6c-4.3,7.1-10.5,11.9-18.4,14.3c-3.1,1-6.4,1.5-9.6,2.3c-1,0.2-2,0-2.4-1
		C59,96.1,58.3,93.3,58.3,90.1z M66,95.1c-0.3-1.1-0.5-2-0.8-2.9c-1.1,0.2-1.9,0.3-2.9,0.5c0.3,1.2,0.5,2.1,0.7,3.1
		C64.1,95.6,64.9,95.4,66,95.1z"/>
	<path d="M91.1,73.7c1.2,0.2,2,0.9,1.6,2.1c-0.2,0.6-1,1.4-1.5,1.4c-0.5,0-1.4-0.7-1.6-1.3C89.2,74.8,90,74,91.1,73.7z"/>
	<path d="M25.4,56c-4.1,0-8.2,0-12.3,0c0-0.9,0-1.7,0-2.5c2.1-2.2,4.4-4.5,6.5-6.8c0.8-0.9,1.4-1.9,1.9-2.9c0.6-1.2,0.3-2.4-0.8-3.2
		c-1-0.8-2.2-0.8-3.3-0.1c-0.6,0.4-1.1,0.9-1.7,1.5c-0.8-0.5-1.7-0.9-2.5-1.4c1.6-3.6,5.3-5,8.6-3.4c3.3,1.5,4.5,5.2,2.6,8.6
		c-0.8,1.3-1.9,2.5-2.9,3.7c-0.9,1-1.8,1.9-3.1,3.3c2.7,0,4.8,0,7.1,0C25.4,53.9,25.4,54.8,25.4,56z"/>
	<path d="M38.1,36.8c-2.1,4.3-4.2,8.3-6.3,12.6c1.8,0,3.3,0,5.1,0c0.1-1.3,0.1-2.7,0.2-4.3c1.1,0,2.1,0,3.4,0
		c0.1,1.4,0.1,2.7,0.2,4.2c0.6,0.2,1.2,0.3,1.8,0.5c0,0.9,0,1.7,0,2.7c-0.5,0.2-1.1,0.4-1.7,0.6c-0.1,0.9-0.2,1.8-0.3,2.9
		c-1.1,0-2,0-3.2,0c-0.1-0.9-0.2-1.8-0.4-3.1c-2.8,0-5.7,0-8.6,0c-0.4-2-0.4-3.5,0.5-5.1c1.9-3.7,3.8-7.4,5.7-11.1
		C35.6,36.8,36.7,36.8,38.1,36.8z"/>
	<path d="M48,53.3c0-1.3,0-2.1,0-3.2c3.9,0,7.8,0,12.1,0c-0.1,1.2,0,2.4-0.4,3.4c-2,5.2-4.1,10.4-6.2,15.6c-1.2,0-2.3,0-3.7,0
		c2.1-5.2,4.1-10.4,6.2-15.8C53.2,53.3,50.7,53.3,48,53.3z"/>
	<path d="M34.9,69.3c5.8-10.8,11.4-21.3,17-31.8c0.1-0.2,0.5-0.2,1.4-0.4c-5.9,11-11.3,21.6-17.2,32C36.1,69.2,35.6,69.2,34.9,69.3z
		"/>
</g>
</svg>
