<?xml version="1.0" encoding="utf-8"?>
<!-- Generator: Adobe Illustrator 19.2.1, SVG Export Plug-In . SVG Version: 6.00 Build 0)  -->
<svg version="1.1" id="Layer_1" xmlns="http://www.w3.org/2000/svg" xmlns:xlink="http://www.w3.org/1999/xlink" x="0px" y="0px"
	 viewBox="0 0 100 100" style="enable-background:new 0 0 100 100;" xml:space="preserve">
<g>
	<path d="M67.3,77.9c-1.4-0.2-2.9-0.3-4.3-0.5c-2.3-0.3-4.4,0.2-6.2,1.7c-1.1,0.9-2.3,1.7-3.5,2.5c-2.2,1.5-4.4,1.5-6.6,0
		c-1.1-0.8-2.3-1.5-3.3-2.4c-2.3-1.9-4.9-2.2-7.7-1.7c-1.4,0.2-2.9,0.2-4.3,0.3c-1.9,0.1-3.2-0.8-4.1-2.5c-0.6-1.2-1.3-2.4-1.7-3.7
		c-1.2-3.2-3.4-5.2-6.5-6.2c-1.1-0.4-2.2-1-3.3-1.5c-1.8-1-2.6-2.6-2.5-4.5c0.1-1.8,0.3-3.6,0.5-5.5c0.2-2-0.3-3.8-1.5-5.3
		c-1-1.3-2-2.7-3-4.1c-1.4-2.1-1.3-4.1,0.1-6.2c0.7-1,1.4-2,2.2-3c1.9-2.1,2.7-4.6,2.2-7.4c-0.1-0.8-0.2-1.5-0.4-2.3
		c-0.6-4,0.2-5.8,4-7.5c6.3-2.7,6.2-2.2,9.4-9.4c1.5-3.4,3.2-4.2,6.9-3.8c0.7,0.1,1.4,0.1,2,0.3C39,6,41.9,5,44.6,2.7
		c4.2-3.5,6.2-3.6,10.5-0.1c3.2,2.7,6.6,3.4,10.6,2.6c4.5-0.9,6.1,0.2,8.1,4.4c0.3,0.6,0.6,1.3,0.8,1.9c1,2.9,3,4.9,6,5.8
		c0.9,0.3,1.7,0.7,2.5,1.1c3.3,1.6,4,2.9,3.7,6.5c0,0.5-0.1,0.9-0.2,1.4c-0.8,3.6-0.1,6.8,2.4,9.8c3.9,4.8,3.9,6.2,0,10.9
		c-2.5,3-3,6.1-2.3,9.8c0.9,4.6-0.3,6.6-4.6,8.4c-0.5,0.2-1,0.4-1.5,0.5c-2.7,0.9-4.6,2.5-5.7,5.2c-0.5,1.2-1.1,2.4-1.6,3.5
		C72,77,70.2,78.3,67.3,77.9z M66.3,73.8c2.8,0.1,3,0.2,3.9-2.4c1.6-4.8,4.6-8.2,9.5-9.7c0.2-0.1,0.4-0.2,0.6-0.3
		c2.8-1.3,2.8-1.3,2.3-4.3c-0.8-4.7-0.2-8.9,3.1-12.6c2.8-3.1,2.9-2.9,0-6.2c-2.9-3.4-3.9-7.1-3.3-11.5c0.6-4.2,0.5-4.3-3.4-5.9
		c-4.1-1.6-7-4.3-8.4-8.5c-0.1-0.4-0.3-0.7-0.4-1.1C69,8.8,68.7,8.6,66,9.2c-5.1,1.1-9.5,0-13.4-3.4c-2.5-2.2-2.7-2.2-5.4,0
		c-3.5,2.9-7.2,4.3-11.8,3.7C30.9,8.9,30.8,9,29,13.4c-1.4,3.3-3.6,5.8-7,7.1c-1.1,0.4-2.2,1-3.4,1.4c-1.2,0.4-1.7,1.2-1.5,2.5
		c0.1,0.5,0.1,1.1,0.2,1.6c0.9,4.6,0.2,8.8-3.1,12.3c-0.5,0.5-0.9,1.2-1.4,1.8c-0.9,1-0.8,1.9,0,2.8c0.5,0.6,0.9,1.2,1.4,1.8
		c2.8,3.2,3.8,6.8,3.3,11c-0.6,4.6-0.5,4.7,3.9,6.5c3.7,1.5,6.2,3.9,7.6,7.7c1.7,4.5,1.8,4.4,6.5,3.6c3.3-0.6,6.4-0.1,9.1,1.9
		c1.3,0.9,2.6,1.9,3.9,2.9c0.8,0.6,1.6,0.7,2.5,0c1.1-0.8,2.2-1.7,3.3-2.5c2.6-2,5.6-2.7,8.8-2.3C64.3,73.6,65.3,73.7,66.3,73.8z"/>
	<path d="M74.5,89.7c0,2.6,0,5.2,0,7.8c0,2.3-0.7,2.8-3,2.3c-6.5-1.4-12.9-2.9-19.4-4.3c-0.8-0.2-1.7-0.2-2.4,0
		c-6.6,1.4-13.2,2.9-19.9,4.3c-2.2,0.5-2.9-0.1-3-2.4c-0.1-3.2,0-6.4,0-9.6c0-0.2,0-0.5,0-0.7c0.2-1.1,0.6-2,1.9-1.9
		c1.2,0,1.7,0.9,1.7,2c0,2.3,0,4.6,0,6.9c0,2,0.1,2,2.1,1.6c5.3-1.1,10.6-2.3,15.8-3.5c1.7-0.4,3.4-0.4,5.1,0
		c5,1.2,10.1,2.3,15.1,3.4c2.3,0.5,2.3,0.5,2.3-2c0-3.6,0-7.2,0-10.8c0-0.7-0.1-1.5,0.2-2c0.4-0.7,0.7-1.1,1.6-1.1s1.6,0.8,1.6,1.5
		c0.2,1.9,0.1,3.8,0.1,5.7C74.5,87.9,74.5,88.8,74.5,89.7z"/>
	<path d="M30.9,81.6c-0.1,0.9-0.7,1.6-1.9,1.6c-1.2,0-1.8-0.7-2-1.8c-0.1-1,1-2.2,1.9-2.2C29.9,79.3,30.9,80.4,30.9,81.6z"/>
	<path d="M50.7,69.9c-15-0.1-27.6-12.1-27.9-27.1c-0.3-12.9,8.5-24.2,21.1-27.3c2.1-0.5,4.2-0.7,6.3-0.9c1.4-0.1,2.3,0.8,2.1,1.8
		c-0.2,1.2-1.1,1.3-2.1,1.4c-3.7,0.2-7.2,1.1-10.6,2.7c-8.8,4.3-14.2,13.3-13.7,22.8c0.6,10.9,7.4,19.3,17.4,22.3
		c14.7,4.4,29.4-4.9,31.8-19.5c0.2-1,0.1-2.1,0.2-3.2c0.1-1.1,0.4-2.2,1.9-2.1c1.4,0.1,1.4,1.2,1.3,2.2c-0.4,10.3-5.3,17.9-14,23.2
		C60.4,68.8,55.7,69.9,50.7,69.9z"/>
	<path d="M45.9,58.3c-0.8-0.4-1.4-0.5-1.8-0.8c-3.4-2.7-6.9-5.3-10.2-8.1c-1.3-1.1-1.3-2.4-0.2-3.3c0.9-0.7,1.9-0.8,2.9,0
		c2.3,1.9,4.7,3.7,7,5.5c1.7,1.3,1.7,1.3,2.9-0.4c5.4-7.3,10.7-14.7,16.1-22c0.5-0.7,1.1-1.5,1.7-2.1c0.8-0.8,1.8-0.8,2.7-0.1
		c0.8,0.7,1.1,1.6,0.5,2.7c-0.2,0.4-0.5,0.8-0.8,1.1c-6.2,8.4-12.3,16.9-18.5,25.3C47.6,57,46.6,57.6,45.9,58.3z"/>
	<path d="M57.5,14.7c1,0,1.9,1,1.9,2.1c0,1.2-0.6,1.8-1.8,1.8c-1.2,0-1.8-0.6-1.9-1.8C55.6,15.7,56.5,14.7,57.5,14.7z"/>
</g>
</svg>
