<?xml version="1.0" encoding="utf-8"?>
<!-- Generator: Adobe Illustrator 23.0.0, SVG Export Plug-In . SVG Version: 6.00 Build 0)  -->
<svg version="1.1" id="Layer_1" xmlns="http://www.w3.org/2000/svg" xmlns:xlink="http://www.w3.org/1999/xlink" x="0px" y="0px"
	 viewBox="0 0 100 100" style="enable-background:new 0 0 100 100;" xml:space="preserve">
<g>
	<path d="M31.1,32.69c0-4.5-0.05-8.7,0.02-12.9c0.03-1.72,0.12-3.49,0.54-5.14c2.02-7.89,7.15-12.88,15.08-14.29
		c7.89-1.41,14.49,1.35,19.21,8.01c1.9,2.69,2.8,5.79,2.89,9.06c0.12,4.32,0.08,8.65,0.11,12.98c0,0.67,0,1.34,0,2.18
		c0.82,0.04,1.48,0.09,2.14,0.1c2.47,0.07,4.95,0.03,7.41,0.2c4.9,0.34,8.77,3.92,9.29,8.8c0.51,4.85,0.78,9.73,1.07,14.6
		c0.5,8.33,0.96,16.66,1.39,24.99c0.14,2.65,0.23,5.31,0.22,7.97c-0.02,6.11-3.96,10.32-10.83,10.75c-0.37,0.02-0.74,0-1.11,0
		c-18.98,0-37.96,0.01-56.94-0.02c-1.29,0-2.62-0.05-3.85-0.39c-5.65-1.54-8.59-5.97-8.18-11.82c0.39-5.49,0.61-10.98,0.91-16.47
		c0.51-9.38,0.96-18.76,1.54-28.14c0.38-6.19,4.1-9.85,10.27-10.31c2.15-0.16,4.32-0.12,6.48-0.17
		C29.44,32.68,30.11,32.69,31.1,32.69z M31.02,38.54c-3.12,0-5.96-0.12-8.78,0.04c-2.47,0.14-3.73,1.4-4.3,3.88
		c-0.19,0.84-0.31,1.7-0.36,2.56c-0.69,12.28-1.37,24.57-2.02,36.85c-0.13,2.53-0.22,5.07-0.16,7.6c0.06,2.69,1.49,4.21,4.15,4.62
		c1.09,0.17,2.22,0.21,3.33,0.21c18,0.01,35.99,0.01,53.99,0c0.99,0,1.98-0.04,2.96-0.15c3.39-0.38,4.99-2.1,4.95-5.49
		c-0.03-2.59-0.23-5.19-0.37-7.78c-0.55-10.12-1.1-20.25-1.66-30.37c-0.14-2.47-0.29-4.94-0.53-7.4c-0.28-2.91-1.94-4.48-4.84-4.59
		c-2.35-0.08-4.7-0.05-7.05-0.05c-0.41,0-0.82,0.1-1.2,0.15c-0.07,0.3-0.14,0.48-0.14,0.65c-0.01,1.61,0.01,3.22-0.03,4.82
		c-0.02,0.85,0.17,1.52,0.79,2.17c1.09,1.14,1.48,2.56,1.2,4.11c-0.38,2.03-2.03,3.71-3.89,4.02c-2.17,0.36-4.1-0.54-5.2-2.42
		c-1.01-1.74-0.83-3.88,0.45-5.56c0.33-0.43,0.85-0.88,0.87-1.35c0.09-2.14,0.04-4.29,0.04-6.45c-8.9,0-17.58,0-26.37,0
		c0,1.76,0.04,3.36-0.01,4.96c-0.04,1.16,0.21,2.07,1.05,3c1.31,1.46,1.37,3.29,0.54,5.04c-0.83,1.74-2.21,2.78-4.22,2.84
		c-2.08,0.06-3.59-0.89-4.52-2.67c-0.94-1.8-0.75-3.57,0.44-5.24c0.35-0.48,0.84-1.01,0.87-1.54
		C31.08,42.92,31.02,40.82,31.02,38.54z M62.98,32.57c0.1-0.23,0.19-0.34,0.19-0.45c-0.02-4.76,0.16-9.53-0.11-14.27
		c-0.34-6.05-3.62-9.89-9.3-11.51C45.24,3.89,37.08,9.9,36.92,18.74c-0.07,4.02-0.08,8.03-0.1,12.05c0,0.59,0.08,1.17,0.13,1.77
		C45.78,32.57,54.41,32.57,62.98,32.57z"/>
</g>
</svg>
