<?xml version="1.0" encoding="utf-8"?>
<!-- Generator: Adobe Illustrator 23.0.0, SVG Export Plug-In . SVG Version: 6.00 Build 0)  -->
<svg version="1.1" id="Layer_1" xmlns="http://www.w3.org/2000/svg" xmlns:xlink="http://www.w3.org/1999/xlink" x="0px" y="0px"
	 viewBox="0 0 100 100" style="enable-background:new 0 0 100 100;" xml:space="preserve">
<style type="text/css">
	.st0{fill:#02BFD5;}
</style>
<g>
	<path class="st0" d="M37.36,12c2.27-2.67,4.57-5.33,6.8-8.03C48.52-1.32,51.13-1.33,55.6,4c1.63,1.95,3.3,3.87,4.77,5.94
		c1.29,1.82,2.67,2.07,4.71,1.31c2.49-0.93,5.11-1.53,7.69-2.21c5.8-1.52,8.57,0.52,8.9,6.58c0.15,2.68,0.25,5.36,0.24,8.05
		c-0.01,1.98,0.82,3.09,2.71,3.73c2.93,0.98,5.83,2.1,8.68,3.31c4.5,1.91,5.39,4.88,2.78,9.08c-1.34,2.16-2.59,4.41-4.23,6.34
		c-2.16,2.55-1.78,4.69,0.11,7.14c1.63,2.12,3.06,4.41,4.38,6.74c2.29,4.03,1.35,6.97-2.85,8.93c-2.68,1.25-5.41,2.42-8.22,3.31
		c-2.45,0.78-3.3,2.28-3.27,4.7c0.03,2.54-0.12,5.08-0.24,7.62c-0.28,5.56-2.93,7.6-8.25,6.31c-2.73-0.66-5.46-1.35-8.14-2.2
		c-2.03-0.64-3.43-0.3-4.71,1.52c-1.7,2.42-3.64,4.68-5.58,6.92c-3.27,3.78-6.27,3.86-9.57,0.18c-2.07-2.31-3.99-4.76-5.86-7.24
		c-1.19-1.58-2.48-2.01-4.39-1.4c-2.95,0.93-5.96,1.64-8.95,2.42c-3.95,1.03-6.73-0.51-7.42-4.57c-0.54-3.18-0.66-6.46-0.64-9.69
		c0.01-2.51-0.91-3.87-3.3-4.63c-2.81-0.89-5.57-1.99-8.28-3.16c-4.01-1.73-5.08-4.7-2.98-8.51c1.5-2.72,3.15-5.37,4.99-7.86
		c1.42-1.93,1.26-3.5-0.02-5.35c-1.77-2.55-3.46-5.17-5.01-7.85c-2.17-3.75-1.38-6.43,2.52-8.24c2.8-1.3,5.71-2.42,8.65-3.35
		c2.42-0.77,3.33-2.24,3.3-4.68c-0.04-2.68,0.06-5.37,0.23-8.05c0.34-5.35,3.01-7.35,8.18-6.07C30.05,9.93,33.54,10.96,37.36,12z
		 M42.43,56c-2.45-2.75-4.44-5.13-6.6-7.34c-1.36-1.39-3.04-1.42-4.57-0.15c-1.52,1.25-2.46,2.79-1.53,4.8
		c0.4,0.87,0.99,1.71,1.66,2.41c2.35,2.43,4.72,4.85,7.17,7.17c3.7,3.51,5.23,3.49,8.83-0.09c6.69-6.66,13.36-13.34,20.03-20.03
		c0.7-0.7,1.5-1.35,1.97-2.19c0.97-1.74,1.02-3.59-0.52-5.04c-1.57-1.48-3.42-2.02-5.33-0.53c-0.88,0.69-1.67,1.51-2.46,2.31
		C55.12,43.29,49.16,49.26,42.43,56z"/>
</g>
</svg>
