<?xml version="1.0" encoding="utf-8"?>
<!-- Generator: Adobe Illustrator 19.2.1, SVG Export Plug-In . SVG Version: 6.00 Build 0)  -->
<svg version="1.1" id="Layer_1" xmlns="http://www.w3.org/2000/svg" xmlns:xlink="http://www.w3.org/1999/xlink" x="0px" y="0px"
	 viewBox="0 0 20 20" style="enable-background:new 0 0 20 20;" xml:space="preserve">
<style type="text/css">
	.st0{fill:#565656;}
</style>
<g>
	<path class="st0" d="M10.8,8.3c0.7,0.5,1.4,1,2.1,1.4c0.5,0.3,1.6,0.1,2-0.4c0.5-0.6,1-1.3,1.5-1.9C16.1,7.2,16,7,15.8,6.8
		C15.4,6,15.5,5,16.1,4.4s1.5-0.8,2.2-0.4c0.8,0.4,1.2,1.2,1.1,2.1s-0.7,1.5-1.6,1.7c-0.4,0.1-0.7,0.2-0.9,0.5
		c-0.5,0.6-0.9,1.2-1.4,1.8c-0.1,0.1-0.1,0.2-0.1,0.2c0.7,1.3,0.6,2.2-0.1,2.9c-0.6,0.6-1.6,0.7-2.3,0.2c-0.9-0.6-1.1-1.4-0.6-2.9
		c-0.6-0.4-1.3-0.9-2-1.3C10,9,8.7,9.3,8.4,9.8C8,10.4,7.6,11,7.1,11.6c-0.3,0.3-0.3,0.6-0.1,1c0.5,1.4-0.4,2.7-1.7,2.7
		c-1.2,0-2.1-0.9-2-2.2c0.1-1.1,1.1-1.9,2.2-1.7c0.2,0,0.3,0.1,0.5,0.1c0.6-0.9,1.2-1.7,1.8-2.6C7,7.6,7,6.6,7.8,5.9
		C8.3,5.2,9.3,5.1,10,5.5C10.9,6.1,11.2,6.9,10.8,8.3z M17.5,4.7c-0.5,0-1.1,0.5-1.1,1s0.5,1.1,1,1.1s1-0.5,1-1
		C18.6,5.2,18.1,4.7,17.5,4.7z M10.1,7.3c0-0.5-0.5-1-1-1.1c-0.5,0-1,0.5-1.1,1c0,0.6,0.4,1,1,1.1C9.6,8.3,10.1,7.8,10.1,7.3z
		 M14.9,11.7c0-0.6-0.5-1-1.1-0.9c-0.5,0-1,0.5-1,1s0.5,1,1.1,1C14.4,12.8,14.9,12.3,14.9,11.7z M5,12.2c-0.5,0-1,0.6-1,1.1
		s0.6,1,1.1,1s1-0.5,1-1C6.1,12.7,5.5,12.2,5,12.2z"/>
	<path class="st0" d="M11.1,19.5c-2.6,0-5.2-0.1-7.8,0c-1.5,0-3.3-1.3-3.3-3.3c0-4.9,0-9.9,0-14.8c0-0.2,0-0.3,0-0.5
		c0.1-0.2,0.3-0.4,0.4-0.4C0.7,0.6,0.9,0.8,1,1c0,0.2,0,0.5,0,0.8c0,4.6,0,9.1,0,13.7c0,0.3,0,0.5,0,0.8c0.1,1.2,1,2.1,2.2,2.1
		c0.9,0,1.7,0,2.6,0c4.3,0,8.6,0,12.9,0c0.3,0,0.5,0,0.8,0s0.6,0.3,0.5,0.6c0,0.2-0.3,0.4-0.5,0.5s-0.5,0-0.8,0
		C16.2,19.5,13.7,19.5,11.1,19.5z"/>
</g>
</svg>
