<?xml version="1.0" encoding="utf-8"?>
<!-- Generator: Adobe Illustrator 23.0.0, SVG Export Plug-In . SVG Version: 6.00 Build 0)  -->
<svg version="1.1" id="Layer_1" xmlns="http://www.w3.org/2000/svg" xmlns:xlink="http://www.w3.org/1999/xlink" x="0px" y="0px"
	 viewBox="0 0 100 100" style="enable-background:new 0 0 100 100;" xml:space="preserve">
<g>
	<path d="M30.57,12.49c4.98,0,9.95-0.01,14.93,0c6.33,0.01,11.17,2.59,13.99,8.39c0.62,1.27,1.48,1.42,2.67,1.42
		c7.13-0.03,14.26,0.06,21.39-0.03C91.28,22.16,98,27.7,99.72,35c0.18,0.78,0.17,1.62,0.18,2.43c0.01,7.43-0.27,14.87,0.09,22.28
		c0.32,6.66-5.63,14.15-12.24,15.58c-1.22,0.26-2.48,0.47-3.72,0.48c-1.2,0.01-1.53,0.5-1.5,1.61c0.05,2.45,0.13,4.91-0.07,7.35
		c-0.08,0.97-0.71,2.03-1.4,2.75c-0.21,0.22-1.61-0.39-2.21-0.92c-3.49-3.1-6.93-6.26-10.31-9.47c-0.93-0.88-1.83-1.32-3.13-1.3
		c-5.12,0.06-10.25-0.11-15.37,0.06c-7.36,0.24-14.72-5.59-16.12-12.21c-0.44-2.07-2.89-2.44-4.69-0.75
		c-2.92,2.74-5.78,5.54-8.74,8.24c-0.82,0.75-2.02,1.8-2.86,1.65c-1.52-0.26-1.51-1.9-1.54-3.29c-0.05-1.99-0.32-3.98-0.36-5.97
		c-0.02-1.16-0.45-1.48-1.57-1.57C5.83,61.27-0.3,54.64,0.01,46.37c0.23-6.3,0.14-12.63,0.02-18.94
		c-0.15-7.91,6.35-14.95,14.94-14.94C20.18,12.49,25.37,12.49,30.57,12.49z M78.34,81.22c0.22-0.11,0.43-0.23,0.65-0.34
		c0-1.32,0-2.64,0-3.96c-0.01-3.92-0.64-4.79,4.6-4.78c6.87,0.02,12.6-5.44,12.72-12.04c0.13-7.35,0.13-14.71,0-22.07
		c-0.11-6.5-5.77-12.02-12.18-11.86c-11.73,0.29-23.48,0.07-35.22,0.1c-1.1,0-2.24,0.09-3.28,0.4c-5.16,1.54-8.45,6.16-8.54,12.21
		c-0.1,6.17-0.05,12.33,0,18.5c0.01,1.69,0.09,3.42,0.44,5.07c1.28,5.89,6.08,9.58,12.21,9.68c4.74,0.07,9.48-0.21,14.23-0.29
		c3.04-0.05,5.69,0.62,7.84,3.17C73.73,77.29,76.14,79.17,78.34,81.22z M19.63,66.17c0.21,0.09,0.42,0.17,0.64,0.26
		c2.31-2.28,4.67-4.51,6.92-6.84c1.12-1.15,2.34-1.66,3.95-1.61c2.35,0.07,2.36,0,2.36-2.48c0-5.94-0.01-11.88,0.01-17.82
		c0-0.81,0.09-1.62,0.22-2.42c1.22-7.32,8.76-13.3,16.37-12.97c1.82,0.08,3.65,0.01,5.55,0.01c-1-3.19-4.88-5.82-8.38-5.83
		c-11.14-0.02-22.28-0.01-33.42,0.01c-0.8,0-1.63,0.11-2.4,0.33c-4.65,1.38-7.78,5.81-7.84,11.21C3.58,34.17,3.49,40.34,3.7,46.5
		c0.07,2.07,0.64,4.31,1.62,6.12c2.18,3.99,5.76,5.7,10.39,5.41c3.04-0.19,3.82,0.71,3.91,3.74C19.66,63.24,19.63,64.7,19.63,66.17z
		"/>
	<path d="M51.5,51.25c-1.61-0.02-3.2-1.53-3.23-3.06c-0.03-1.59,1.71-3.2,3.38-3.13c1.66,0.07,3.13,1.59,3.07,3.17
		C54.66,49.87,53.16,51.27,51.5,51.25z"/>
	<path d="M66.73,51.25c-1.68,0.01-3.16-1.39-3.2-3.04c-0.04-1.63,1.4-3.1,3.09-3.15c1.7-0.05,3.42,1.56,3.37,3.15
		C69.95,49.74,68.34,51.24,66.73,51.25z"/>
	<path d="M81.93,45.05c1.8,0.05,2.94,1.31,2.85,3.17c-0.09,1.89-1.32,3.1-3.07,3.02c-1.66-0.08-3.1-1.6-3.03-3.2
		C78.76,46.4,80.27,45.01,81.93,45.05z"/>
</g>
</svg>
