<?xml version="1.0" encoding="utf-8"?>
<!-- Generator: Adobe Illustrator 19.2.1, SVG Export Plug-In . SVG Version: 6.00 Build 0)  -->
<svg version="1.1" id="Layer_1" xmlns="http://www.w3.org/2000/svg" xmlns:xlink="http://www.w3.org/1999/xlink" x="0px" y="0px"
	 viewBox="0 0 20 20" style="enable-background:new 0 0 20 20;" xml:space="preserve">
<style type="text/css">
	.st0{fill:#565656;}
</style>
<g>
	<path class="st0" d="M8.1,10c0,2.3-1.8,4-4.1,4c-2.2,0-4.1-1.9-4-4.1c0.1-2.3,1.8-4.1,4.1-4C6.4,6,8.1,7.8,8.1,10z M4.1,6.1
		C2,6.1,0.2,7.8,0.2,9.9c0,2.2,1.7,3.9,3.9,3.9S8,12.1,8,9.9C7.9,7.9,6.2,6.2,4.1,6.1z"/>
	<path class="st0" d="M10.7,15.8c0,0.4,0,0.7,0,1.1s-0.3,0.7-0.7,0.7s-0.7-0.3-0.7-0.8c0-0.7,0-1.4,0-2.1c0-0.4,0.3-0.7,0.6-0.7
		s0.6,0.2,0.7,0.7C10.7,15,10.7,15.4,10.7,15.8L10.7,15.8z"/>
	<path class="st0" d="M9.4,4.2c0-0.4,0-0.7,0-1.1S9.7,2.4,10,2.4s0.7,0.3,0.7,0.7c0,0.7,0,1.5,0,2.2C10.7,5.7,10.4,6,10,6
		C9.7,6,9.4,5.7,9.4,5.3V5.2C9.4,4.9,9.4,4.6,9.4,4.2L9.4,4.2z"/>
	<path class="st0" d="M10.7,8.1c0,0.4,0,0.7,0,1.1c0,0.4-0.3,0.6-0.6,0.6c-0.4,0-0.7-0.2-0.7-0.7c0-0.7,0-1.4,0-2.2
		c0-0.4,0.3-0.7,0.6-0.7c0.4,0,0.6,0.2,0.7,0.6c0,0.1,0,0.1,0,0.2C10.7,7.5,10.7,7.8,10.7,8.1L10.7,8.1z"/>
	<path class="st0" d="M9.4,11.9c0-0.4,0-0.7,0-1.1c0-0.4,0.3-0.7,0.6-0.7c0.4,0,0.7,0.2,0.7,0.6c0,0.7,0,1.5,0,2.2
		c0,0.4-0.3,0.7-0.7,0.7c-0.3,0-0.6-0.3-0.6-0.7C9.4,12.6,9.4,12.3,9.4,11.9L9.4,11.9z"/>
	<path class="st0" d="M14.6,13.7c-1.2-0.3-2-1.1-2.4-2.2c-0.8-1.9-0.1-4,1.7-5s3.9-0.7,5.2,1.1c1.4,1.7,0.9,4.4-0.9,5.7
		c-0.1,0.1-0.2,0.1-0.3,0.1l0,0c0.1-0.1,0.2-0.3,0.4-0.4c1.4-1.2,1.8-3.1,1-4.8c-0.8-1.5-2.4-2.4-4.3-2c-1.5,0.3-2.6,1.3-2.9,2.9
		c-0.4,1.6,0.1,2.9,1.4,3.9C13.9,13.3,14.3,13.5,14.6,13.7L14.6,13.7z"/>
	<path class="st0" d="M18,13.3c-0.6,0.6-1.5,0.6-2.3,0.6c-0.4,0-0.8-0.2-1.1-0.3l0,0c0.1,0,0.2,0,0.3,0c0.9,0.2,1.9,0.1,2.7-0.3
		C17.8,13.4,17.9,13.4,18,13.3L18,13.3z"/>
	<path class="st0" d="M4.1,13.6c-2,0-3.6-1.6-3.6-3.6s1.6-3.6,3.6-3.6S7.6,8,7.6,10S6.1,13.6,4.1,13.6z M7.4,10
		c0-1.8-1.5-3.3-3.3-3.3S0.8,8.2,0.8,10c0,1.9,1.5,3.4,3.3,3.4C5.9,13.3,7.4,11.8,7.4,10z"/>
	<path class="st0" d="M19,8.1c-1.5,1.6-3.1,3.1-4.6,4.7c0.3,0.1,0.6,0.2,0.9,0.3c0.1,0,0.3,0,0.4-0.1c1.1-1.1,2.3-2.3,3.4-3.4
		c0.1-0.1,0.1-0.4,0.1-0.6c0-0.2,0-0.3-0.1-0.6c0.8,1,0.5,3.2-0.9,4.4c-1.5,1.2-3.9,0.9-5.1-0.7s-0.8-4,0.8-5.1
		C15.6,5.9,17.9,6.4,19,8.1z M18.8,10.4c-1,0.9-1.9,1.9-2.9,2.8c2.2-0.1,3.7-1.6,3.4-3.4C19.2,9.9,19.1,10,19,10
		C18.9,10.2,18.8,10.3,18.8,10.4L18.8,10.4z M18.6,7.9c0,0,0-0.1-0.1-0.1C18,7.2,18,7.2,17.4,7.7c-1.2,1.2-2.4,2.3-3.5,3.5
		c-0.2,0.2-0.5,0.4-0.8,0.6c0.4,0.4,0.6,0.6,0.8,0.9C15.5,11.1,17,9.5,18.6,7.9z M13.1,11.7c1.6-1.6,3-3,4.6-4.6
		c-0.3-0.1-0.5-0.2-0.8-0.3c-0.3-0.1-0.5,0-0.7,0.2c-1.1,1.1-2.2,2.2-3.3,3.3c-0.2,0.2-0.3,0.4-0.2,0.7C12.9,11.2,13,11.4,13.1,11.7
		z M12.7,9.9c1-1,2.1-2.2,3.2-3.2C14.2,6.6,12.6,8.1,12.7,9.9z"/>
	<path class="st0" d="M14.8,12.7c1.3-1.3,2.6-2.6,4-4c0,0.3,0.1,0.4,0.2,0.6c-1.1,1.1-2.3,2.3-3.4,3.4c-0.2,0.1-0.5,0.1-0.7,0.2
		C14.8,12.8,14.8,12.8,14.8,12.7z M15.3,12.6L15.3,12.6c1.2-1.1,2.3-2.2,3.4-3.3c0,0,0,0-0.1-0.1C17.5,10.4,16.4,11.5,15.3,12.6z"/>
	<path class="st0" d="M4.1,7c1.6,0,3,1.3,3,3S5.8,13,4,13c-1.7,0-3-1.3-3-3S2.6,6.9,4.1,7z M1.2,10c0,1.8,1.6,2.9,2.9,2.8
		c1.6,0,2.8-1.4,2.8-3c0-1.4-1.3-2.7-2.9-2.7C2.4,7.2,1.2,8.5,1.2,10z"/>
	<path class="st0" d="M17.9,7.5c0.2,0.2,0.3,0.3,0.5,0.5c-1.4,1.5-2.8,2.9-4.3,4.3c-0.2-0.2-0.3-0.3-0.4-0.4
		C15.1,10.5,16.5,9,17.9,7.5z M17.9,7.9L18,8c-1.3,1.3-2.6,2.7-3.9,4L14,11.9C15.3,10.6,16.6,9.2,17.9,7.9z"/>
	<path class="st0" d="M17.3,7.2c-1.4,1.4-2.8,2.7-4.1,4c0-0.2-0.1-0.4-0.1-0.7c1.1-1.1,2.2-2.1,3.2-3.2C16.5,7.1,16.8,7,17.3,7.2z
		 M13.3,10.7C13.3,10.7,13.4,10.7,13.3,10.7c1.2-1.1,2.3-2.2,3.4-3.3l0,0C15.6,8.5,14.5,9.6,13.3,10.7z"/>
	<path class="st0" d="M15.5,7c-0.8,0.8-1.6,1.6-2.5,2.5C13.5,8,14.1,7.4,15.5,7z M13.6,8.5c0.3-0.3,0.6-0.6,0.9-0.9l0,0l0,0
		c0,0,0,0,0,0.1C14,7.7,13.8,8.1,13.6,8.5L13.6,8.5L13.6,8.5z"/>
	<path class="st0" d="M18.7,10.4c0.1,0,0.2,0.1,0.3,0.1c-0.4,1.3-1.2,2.1-2.5,2.5c0-0.1,0-0.2,0-0.2c0.6-0.6,1.3-1.2,1.9-1.8
		C18.6,10.8,18.7,10.6,18.7,10.4L18.7,10.4z M18.4,11.6C18.4,11.5,18.4,11.5,18.4,11.6c-0.3,0.2-0.6,0.5-0.9,0.8c0,0,0,0,0.1,0.1
		C17.8,12.1,18.1,11.8,18.4,11.6z"/>
</g>
</svg>
