<?xml version="1.0" encoding="utf-8"?>
<!-- Generator: Adobe Illustrator 19.2.1, SVG Export Plug-In . SVG Version: 6.00 Build 0)  -->
<svg version="1.1" id="Layer_1" xmlns="http://www.w3.org/2000/svg" xmlns:xlink="http://www.w3.org/1999/xlink" x="0px" y="0px"
	 viewBox="0 0 100 114.6" style="enable-background:new 0 0 100 114.6;" xml:space="preserve">
<style type="text/css">
	.st0{fill:#D5D5D5;}
</style>
<g>
	<g>
		<path class="st0" d="M43.4,67c1.1-1.7,2.2-3.3,3.3-4.9c6.3-9.2,12.5-18.5,18.8-27.7c1.3-1.9,2.7-2.2,4.7-0.9
			c1.3,0.9,2.6,1.7,3.9,2.6c1.6,1.1,1.9,2.6,0.8,4.3C66,53.5,57.1,66.6,48.2,79.7c-1,1.5-2.3,2.5-4.2,2.2c-1.2-0.2-2.2-0.8-3.1-1.7
			C35.8,75,30.6,69.8,25.5,64.7c-1.4-1.4-1.4-2.9,0-4.3c1.1-1.2,2.3-2.3,3.4-3.4c1.4-1.4,3-1.4,4.4,0c3.2,3.2,6.4,6.4,9.5,9.5
			C43.1,66.6,43.2,66.8,43.4,67z"/>
	</g>
	<g>
		<path class="st0" d="M50,114.6c-1.1,0-2.3-0.2-3.5-0.7c-14.3-5.8-25.3-13.5-33.8-23.4c-8.3-9.7-12.6-21-12.7-33.3
			c0-3.8,0-7.6,0-11.4c0-1.5,0-2.9,0-4.4C0,41.2,0,40.9,0,40.7c0,0,0-15,0-19.9c0-3.5,2.5-5.9,6.2-6c12.6-0.5,23.2-3.1,32.3-8
			c2-1.1,3.9-2.5,5.9-4c0.6-0.5,1.3-0.9,1.9-1.4C47.6,0.5,48.8,0,50.1,0c0.9,0,2.3,0.3,3.7,1.5C59,6,65.4,9.3,73.9,11.7
			c6.8,1.9,13.6,3,20.3,3.1c3.4,0.1,5.8,2.5,5.8,5.9c0,5,0,10,0,15.1c0,7,0,14,0,21c0,12.3-4.1,23.4-12.1,33.1
			c-8.4,10.2-19.7,18.1-34.3,24.1C52.4,114.3,51.2,114.6,50,114.6z M11.5,32.9c0,7.8,0,15.8,0,23.7c0,9.4,3.1,18,9.1,25.4
			c7.2,8.9,16.8,15.7,29.5,20.9l0.5-0.2c2.3-1,4.4-1.9,6.5-3c10.1-5.2,17.7-11.4,23.3-18.7c5.2-6.9,7.9-14.2,8.1-21.7
			c0.2-7.8,0.2-15.8,0.2-23.5c0-3.3,0-6.6,0-9.9c0,0,0,0,0,0c-2.4-0.2-4.9-0.5-7.4-0.9C68.4,22.8,58.4,19,50,13.1
			c-10.3,7.2-22.4,11.2-38.6,12.8C11.5,28.3,11.5,30.6,11.5,32.9z"/>
	</g>
</g>
</svg>
