<svg xmlns="http://www.w3.org/2000/svg" width="37" height="27" viewBox="0 0 37 27">
    <g fill="none" fill-rule="evenodd">
        <path d="M4.993 24.004c.345 1.378 1.686 2.473 2.95 2.473 1.302 0 2.069-1.095 1.724-2.473-.345-1.379-1.686-2.474-2.95-2.474-1.264 0-2.069 1.095-1.724 2.474m18.581-2.474c1.303 0 2.605 1.095 2.95 2.474.345 1.378-.421 2.473-1.724 2.473s-2.605-1.095-2.95-2.473c-.345-1.379.421-2.474 1.724-2.474"/>
        <path d="M25.068 5.636l4.483 17.638h-3.295c-.537-1.014-1.61-1.744-2.682-1.744-1.073 0-1.762.73-1.8 1.744h-9.885L7.406 5.636h17.662z"/>
        <path d="M4.955 12.975h4.329l2.605 10.299H9.36C8.824 22.26 7.751 21.53 6.68 21.53c-1.035 0-1.763.73-1.801 1.744H2.196L1.008 18.61c-.727-3.122.997-5.636 3.947-5.636"/>
        <path fill="#FFF" d="M20.969 12.975c0 .73.536 1.297 1.226 1.297h5.478l-.65-2.595h-4.828c-.69 0-1.226.568-1.226 1.298M6.717 16.584h5.44c.69 0 1.226.567 1.226 1.297s-.536 1.298-1.226 1.298H6.68c-.69 0-1.226-.568-1.226-1.298.038-.73.574-1.297 1.264-1.297"/>
        <path fill="#77787B" d="M32.807 26.477c0 .243.192.446.422.446h1.11c.23 0 .422-.203.422-.446s-.192-.446-.421-.446h-1.111c-.269 0-.422.203-.422.446zM.664 18.692l1.187 4.663c.039.203.23.324.383.324h2.3c0 .122.037.284.076.406.191.77.69 1.5 1.264 1.987a.432.432 0 0 0-.192.364c0 .244.192.446.422.446h5.134c.23 0 .421-.202.421-.446 0-.243-.191-.446-.421-.446H9.744c.42-.567.536-1.338.344-2.149 0-.08-.038-.121-.038-.162h11.34c0 .122.039.284.077.406.191.77.651 1.46 1.226 1.946-.153.081-.268.203-.268.405 0 .244.191.446.421.446h7.433c.23 0 .421-.202.421-.446 0-.243-.192-.446-.421-.446H26.6c.421-.567.536-1.338.344-2.149 0-.08-.038-.121-.038-.162h2.644c.115 0 .23-.08.344-.162.077-.122.115-.243.077-.365l-2.26-8.88h-.843l2.184 8.556h-2.529c-.651-1.014-1.762-1.744-2.912-1.744-.728 0-1.379.325-1.762.852-.192.243-.306.567-.383.892h-9.195l-.92-3.65h-.842l.92 3.65H9.666c-.651-1.014-1.762-1.744-2.912-1.744-.728 0-1.379.325-1.762.852-.192.243-.307.567-.383.892H2.618l-.69-2.798h1.034c.23 0 .422-.203.422-.446s-.192-.446-.422-.446H1.698l-.192-.69c-.344-1.418-.153-2.716.537-3.689.651-.892 1.724-1.42 2.988-1.42h3.946l.805 3.204h.843L7.98 6.082h3.985l.46 1.825c.038.202.23.324.382.324h.115c.23-.081.345-.284.307-.527l-.422-1.622h7.088l.46 1.825c.076.243.268.365.498.324.23-.081.345-.284.306-.527l-.421-1.622h4.023l1.417 5.595h.843l-1.57-6.163a.409.409 0 0 0-.384-.324h-4.52l-.116-.527c-.613-2.473-3.064-4.5-5.44-4.5-1.15 0-2.145.486-2.797 1.337-.65.892-.842 2.109-.536 3.406l.077.284h-4.33c-.114 0-.23.081-.344.162-.077.122-.115.243-.077.365l1.724 6.771H4.916c-1.532 0-2.797.609-3.64 1.744-.804 1.216-1.034 2.798-.612 4.46zM12.847 2.027c.46-.648 1.226-1.013 2.145-1.013 2.03 0 4.1 1.743 4.636 3.892l.077.284h-7.088l-.115-.527c-.307-1.014-.153-1.946.345-2.636zm9.616 20.476c.23-.324.651-.527 1.111-.527 1.111 0 2.26.973 2.567 2.15.153.526.077 1.054-.192 1.418-.23.325-.65.528-1.11.528-1.112 0-2.261-.974-2.568-2.15-.153-.567-.076-1.094.192-1.419zm-16.895 0c.23-.324.65-.527 1.11-.527 1.112 0 2.261.973 2.567 2.15.154.526.077 1.054-.191 1.418-.23.325-.651.528-1.111.528-1.111 0-2.26-.974-2.567-2.15-.115-.567-.038-1.094.192-1.419zm26.856-9.082h-10.23c-.23 0-.42-.203-.42-.446s.19-.446.42-.446h10.23c.23 0 .421.203.421.446s-.191.446-.421.446zM6.717 18.327c-.23 0-.422-.203-.422-.446s.192-.446.422-.446h5.44c.23 0 .422.203.422.446s-.192.446-.422.446h-5.44zm28.082-5.352c0-.243.192-.446.422-.446h1.11c.23 0 .422.203.422.446s-.191.446-.421.446H35.22c-.23 0-.422-.203-.422-.446zm-3.678 3h3.832c.23 0 .421.203.421.446 0 .244-.192.446-.421.446H31.12c-.23 0-.421-.202-.421-.446.038-.243.192-.446.421-.446z"/>
    </g>
</svg>
