<?xml version="1.0" encoding="utf-8"?>
<!-- Generator: Adobe Illustrator 23.0.0, SVG Export Plug-In . SVG Version: 6.00 Build 0)  -->
<svg version="1.1" id="Layer_1" xmlns="http://www.w3.org/2000/svg" xmlns:xlink="http://www.w3.org/1999/xlink" x="0px" y="0px"
	 viewBox="0 0 100 100" style="enable-background:new 0 0 100 100;" xml:space="preserve">
<style type="text/css">
	.st0{fill-rule:evenodd;clip-rule:evenodd;}
</style>
<g>
	<path class="st0" d="M12.69,37.31C5.7,37.31,0,43.01,0,50c0,6.99,5.7,12.69,12.69,12.69c6.99,0,12.69-5.7,12.69-12.69
		C25.38,43.01,19.68,37.31,12.69,37.31z"/>
	<path class="st0" d="M87.31,37.31c-6.99,0-12.69,5.7-12.69,12.69c0,6.99,5.7,12.69,12.69,12.69C94.3,62.69,100,56.99,100,50
		C100,43.01,94.3,37.31,87.31,37.31z"/>
	<path class="st0" d="M50,37.31c-6.99,0-12.69,5.7-12.69,12.69c0,6.99,5.7,12.69,12.69,12.69c6.99,0,12.69-5.7,12.69-12.69
		C62.69,43.01,56.99,37.31,50,37.31z"/>
</g>
</svg>
