<?xml version="1.0" encoding="utf-8"?>
<!-- Generator: Adobe Illustrator 23.0.0, SVG Export Plug-In . SVG Version: 6.00 Build 0)  -->
<svg version="1.1" id="Layer_1" xmlns="http://www.w3.org/2000/svg" xmlns:xlink="http://www.w3.org/1999/xlink" x="0px" y="0px"
	 viewBox="0 0 100 100" style="enable-background:new 0 0 100 100;" xml:space="preserve">
<g>
	<path d="M11.33,47.2c13.16-3.3,22.23,2.22,25.9,13.26c2.29-0.91,4.73-1.56,6.82-2.79c4.91-2.88,9.51-2.69,14.15,0.51
		c1.32,0.91,2.9,1.44,4.64,2.27c1.66-5.58,4.84-9.71,9.83-12.32c4.95-2.59,10.11-2.36,15.82-0.83c-1.05-2.71-1.92-5.08-2.87-7.41
		c-2.13-5.2-4.34-10.36-6.43-15.57c-0.65-1.63-1.6-2.74-3.42-2.5c-0.77,0.1-1.7,0.6-2.16,1.22c-1.02,1.36-2.02,2.48-3.84,1.58
		c-1.47-0.73-1.82-2.44-0.93-4.26c1.15-2.36,2.92-3.93,5.69-3.7c1.95,0.16,3.97,0.37,5.79,1.04c1.13,0.42,2.34,1.55,2.8,2.67
		C88.44,33.11,93.7,45.9,98.83,58.73C103,69.15,95.49,81.4,84.44,83.18c-10.4,1.68-20.72-6.07-21.64-15.68
		c-0.07-0.69-0.76-1.58-1.4-1.91c-2.69-1.38-5.5-2.5-8.2-3.87c-1.59-0.8-2.95-0.87-4.62-0.11c-3.05,1.41-6.2,2.62-9.37,3.76
		c-1.31,0.47-1.84,1.22-2.13,2.53c-1.96,8.81-7.44,14.07-16.38,15.35C10.58,84.71,0.94,76.54,0.07,66.9
		c-0.32-3.61,0.44-6.97,1.83-10.34c4.73-11.41,9.3-22.89,13.91-34.35c1.59-3.96,5.9-6.29,10.14-5.49c2.87,0.54,4.5,2.36,5.38,5.02
		c0.49,1.5-0.1,2.53-1.39,3.21c-1.4,0.74-2.6,0.23-3.33-1c-0.67-1.14-1.04-2.35-2.78-2.12c-1.85,0.24-2.81,1.24-3.48,2.94
		C17.45,32.16,14.44,39.5,11.33,47.2z M18.75,78.01c6.72,0.57,13.38-5.83,13.45-13.21c0.07-7.27-6.17-13.4-13.6-13.38
		c-7.29,0.02-13.28,6.01-13.25,13.42C5.36,72.27,11.82,78.53,18.75,78.01z M81.24,78.01c7.38-0.01,13.23-5.74,13.27-13.02
		c0.04-7.52-5.93-13.58-13.37-13.57c-7.54,0.01-13.54,5.95-13.4,13.49C67.88,72.79,74.73,78.6,81.24,78.01z"/>
</g>
</svg>
