<?xml version="1.0" encoding="utf-8"?>
<!-- Generator: Adobe Illustrator 19.2.1, SVG Export Plug-In . SVG Version: 6.00 Build 0)  -->
<svg version="1.1" id="Layer_1" xmlns="http://www.w3.org/2000/svg" xmlns:xlink="http://www.w3.org/1999/xlink" x="0px" y="0px"
	 viewBox="0 0 50 50" style="enable-background:new 0 0 50 50;" xml:space="preserve">
<style type="text/css">
	.st0{fill:#FFFFFF;}
</style>
<path class="st0" d="M49.5,20.5H30c-0.3,0-0.5-0.2-0.5-0.5V0.5C29.5,0.2,29.3,0,29,0h-8c-0.3,0-0.5,0.2-0.5,0.5V20
	c0,0.3-0.2,0.5-0.5,0.5H0.5C0.2,20.5,0,20.7,0,21v8c0,0.3,0.2,0.5,0.5,0.5H20c0.3,0,0.5,0.2,0.5,0.5v19.5c0,0.3,0.2,0.5,0.5,0.5h8
	c0.3,0,0.5-0.2,0.5-0.5V30c0-0.3,0.2-0.5,0.5-0.5h19.5c0.3,0,0.5-0.2,0.5-0.5v-8C50,20.7,49.8,20.5,49.5,20.5z"/>
</svg>
