<?xml version="1.0" encoding="utf-8"?>
<!-- Generator: Adobe Illustrator 23.0.0, SVG Export Plug-In . SVG Version: 6.00 Build 0)  -->
<svg version="1.1" id="Layer_1" xmlns="http://www.w3.org/2000/svg" xmlns:xlink="http://www.w3.org/1999/xlink" x="0px" y="0px"
	 viewBox="0 0 100 100" style="enable-background:new 0 0 100 100;" xml:space="preserve">
<g>
	<path d="M0.13,97.5c2.17-6.53,4.24-12.97,6.5-19.35c0.56-1.58,0.41-2.82-0.37-4.18c-2.37-4.12-3.87-8.58-4.99-13.17
		c-2.02-8.3-1.53-16.54,0.83-24.69c2.71-9.4,7.63-17.47,15.03-23.88C24.29,5.99,32.48,1.83,42.04,0.48
		c8.73-1.24,17.2-0.58,25.48,2.4c4.77,1.71,8.99,4.41,12.99,7.46c7.8,5.95,13.17,13.76,16.49,22.87c1.35,3.71,1.71,7.79,2.44,11.71
		c0.3,1.63,0.62,3.31,0.55,4.94c-0.39,8.81-2.08,17.33-6.67,25.02c-4.34,7.27-9.86,13.47-17.16,17.9
		c-7.43,4.51-15.42,7.05-24.2,7.31c-7.91,0.23-15.43-1.04-22.64-4.24c-0.54-0.24-1.22-0.32-1.61-0.7c-2.11-2.04-4.29-1.58-6.78-0.69
		c-5.35,1.9-10.8,3.54-16.23,5.24C1.91,100.57,1.23,100.18,0.13,97.5z M7.43,92.83c1.27-0.39,2.07-0.63,2.87-0.89
		c3.91-1.28,7.86-2.48,11.73-3.87c1.82-0.65,3.4-0.58,5.08,0.33c5.73,3.12,11.7,5.19,18.32,5.94c7.99,0.91,15.44-0.3,22.63-3.5
		c6.56-2.91,12.14-7.14,16.58-12.89c5.03-6.52,8.59-13.72,9.4-21.89c0.96-9.72-0.28-19.19-5.27-27.93
		c-3.83-6.72-8.84-12.33-15.42-16.3c-5.22-3.15-10.85-5.3-17.03-6.14c-7.58-1.04-14.94-0.42-21.96,2.34
		c-7.3,2.88-13.58,7.32-18.59,13.59c-5.7,7.14-8.94,15.24-9.78,24.19c-0.82,8.65,0.45,17.18,4.85,24.77
		c2.07,3.57,2.06,6.56,0.63,10.15C9.95,84.51,8.86,88.47,7.43,92.83z"/>
	<path d="M37.95,42.43c-1.95-0.44-2.47-1.54-2.47-3.29c0-6.02,2.45-10.67,7.65-13.65c7.12-4.09,17.73-0.74,20.75,7.56
		c2.86,7.87-0.04,13.26-6.16,18.26c-1.66,1.36-3.46,2.6-4.92,4.16c-2.02,2.16-1.97,4.98-1.97,7.78c0,1.2-0.31,2.5-0.83,3.57
		c-0.49,1-1.66,1.65-2.75,1.06c-0.86-0.47-1.83-1.34-2.08-2.23c-1.43-5.02,1.42-12.71,5.6-15.89c2.02-1.54,4-3.16,5.87-4.89
		c3.17-2.94,3.22-6.56,1.8-10.32c-1.21-3.21-4.31-5.03-8.24-5.04c-5.56-0.02-9.25,3.44-9.32,9.03
		C40.85,40.7,39.93,41.82,37.95,42.43z"/>
	<path d="M50.92,74.59c-0.56,1.94-1.18,2.94-2.96,2.96c-1.96,0.01-2.49-1.2-2.94-2.82c0.65-1.28,1.46-2.82,3.13-2.42
		C49.25,72.58,50.11,73.89,50.92,74.59z"/>
</g>
</svg>
