<?xml version="1.0" encoding="utf-8"?>
<!-- Generator: Adobe Illustrator 19.2.1, SVG Export Plug-In . SVG Version: 6.00 Build 0)  -->
<svg version="1.1" id="Layer_1" xmlns="http://www.w3.org/2000/svg" xmlns:xlink="http://www.w3.org/1999/xlink" x="0px" y="0px"
	 viewBox="0 0 20 20" style="enable-background:new 0 0 20 20;" xml:space="preserve">
<style type="text/css">
	.st0{fill:#565656;}
</style>
<g>
	<path class="st0" d="M11.8,4.3c-0.3-2,0.4-3.5,2.1-4.1c1.6-0.6,3.2,0.1,4,1.5c0.8,1.3,0.5,3-0.6,4c-1.4,1.3-3,1.2-5-0.3
		c-1.5,0.9-2.9,2-4.4,3c0.5,1.1,0.5,2.1,0,3.2c1.4,1.1,2.9,2,4.4,3c1.9-1.5,3.5-1.6,4.9-0.4c1.2,1.1,1.5,2.8,0.7,4.1
		c-0.9,1.4-2.6,2-4.1,1.4s-2.3-2.1-2-4c-1.5-1-3.1-2.1-4.6-3.2c-2.2,1.4-4,0.6-4.8-0.5c-1-1.2-0.9-2.9,0.1-4.1s2.8-1.7,4.7-0.5
		C8.7,6.4,10.2,5.4,11.8,4.3z M17.1,3.2c0-1.1-0.9-2.1-2.1-2.1s-2.2,1-2.1,2.2c0,1.1,1,2,2.2,2S17.1,4.4,17.1,3.2z M17.1,16.7
		c0-1.2-0.8-2.1-2-2.1c-1.2-0.1-2.2,0.9-2.2,2s0.9,2.1,2.1,2.1C16.1,18.8,17,17.9,17.1,16.7z M5,12c1.1,0.1,2.1-0.9,2.1-2
		c0-1.2-0.9-2-2.1-2.1c-1,0-2.1,0.9-2.1,2.1S3.8,12,5,12z"/>
</g>
</svg>
