<?xml version="1.0" encoding="utf-8"?>
<!-- Generator: Adobe Illustrator 19.2.1, SVG Export Plug-In . SVG Version: 6.00 Build 0)  -->
<svg version="1.1" id="Layer_1" xmlns="http://www.w3.org/2000/svg" xmlns:xlink="http://www.w3.org/1999/xlink" x="0px" y="0px"
	 viewBox="0 0 283.8 309.2" style="enable-background:new 0 0 283.8 309.2;" xml:space="preserve">
<style type="text/css">
	.st0{fill:#FFFFFF;}
</style>
<g>
	<path class="st0" d="M79.4,167.9C65.8,120.8,52.2,73.8,38.5,26.5c-8.1,0-15.6,0.1-23.1,0C6.3,26.4,0.1,21,0,13.4
		C-0.1,5.7,6.1,0.2,15.1,0.1C25.7,0,36.4,0.2,47.1,0c8.1-0.2,12.6,3.9,14.8,11.2c1.6,5.2,3.5,10.4,4.4,15.7
		c1.1,6.2,3.9,8.1,10.4,8.1c59.8-0.3,119.7-0.2,179.5-0.2c26.5,0,27.5,1,27.5,27.7c0,32,0,64,0,96c0,12.1-4.5,16.6-16.7,17.8
		c-45.3,4.5-90.5,9.2-135.7,13.7c-17.3,1.7-34.7,3.2-52,5.2c-3.6,0.4-7.8,2-10.2,4.4c-5.7,5.6-2.6,13.9,5.3,15.2
		c2.5,0.4,5.2,0.2,7.8,0.2c60.4,0,120.7,0,181.1,0c2.6,0,5.2-0.1,7.8,0.1c7.2,0.6,12.3,5.8,12.6,12.5c0.3,6.2-4.2,12.1-10.8,13.5
		c-2.7,0.6-5.7,0.5-8.5,0.5c-61.1,0-122.3,0-183.4,0c-24.5,0-40.1-12.7-41.2-34.1c-1.1-20.2,15.5-38.6,37.2-39.1
		C77.6,168.7,78.3,168.2,79.4,167.9z M106.4,165.3c1.5,0.2,2.1,0.3,2.6,0.3c47.1-4.7,94.1-9.5,141.2-14.2c5.6-0.5,7.3-2.7,7.2-8.4
		c-0.4-13.8-0.1-27.6-0.1-41.4c0-13,0-25.9,0-39.4c-60.3,0-119.9,0-180.6,0C86.7,97,96.5,131.1,106.4,165.3z"/>
	<path class="st0" d="M255.2,309.2c-16.1,0.1-28.8-12.4-28.9-28.3c-0.1-15.7,12.8-28.9,28.4-29.1c15.4-0.2,28.9,13.1,29,28.6
		C283.9,296.2,271,309.2,255.2,309.2z"/>
	<path class="st0" d="M74.8,280.5c0.1,16.2-12.3,28.7-28.5,28.8c-15.9,0-29-13-28.8-28.7c0.2-15.4,13-28.3,28.4-28.7
		C61.6,251.5,74.7,264.5,74.8,280.5z"/>
</g>
</svg>
