<?xml version="1.0" encoding="utf-8"?>
<!-- Generator: Adobe Illustrator 19.2.1, SVG Export Plug-In . SVG Version: 6.00 Build 0)  -->
<svg version="1.1" id="Layer_1" xmlns="http://www.w3.org/2000/svg" xmlns:xlink="http://www.w3.org/1999/xlink" x="0px" y="0px"
	 viewBox="0 0 111.9 100" style="enable-background:new 0 0 111.9 100;" xml:space="preserve">
<style type="text/css">
	.st0{fill:#D5D5D5;}
</style>
<g>
	<g>
		<path class="st0" d="M53.1,54.2H24.4c-2.1,0-3.8,1.7-3.8,3.8v21.7c0,2.1,1.7,3.8,3.8,3.8h28.7c2.1,0,3.8-1.7,3.8-3.8V58
			C56.9,55.9,55.2,54.2,53.1,54.2z M49.3,75.9H28.2V61.8h21.2v14.1H49.3z"/>
		<path class="st0" d="M27.1,0L1.9,14.7C0.7,15.4,0,16.6,0,18v10.4c0,4.9,2.5,9.3,6.5,11.9v55.9c0,2.1,1.7,3.8,3.8,3.8h54h25.6h11.7
			c2.1,0,3.8-1.7,3.8-3.8V40.3c4-2.6,6.5-7,6.5-11.9V18c0-1.3-0.7-2.6-1.9-3.3L84.8,0 M7.6,20.1L29.2,7.6h53.6l21.6,12.6v8.3
			c0,2.7-1.6,5.1-4.1,6.2c-0.8,0.3-1.7,0.5-2.5,0.5c-3.7,0-6.7-3-6.7-6.7c0-2.1-1.7-3.8-3.8-3.8c-1,0-2,0.4-2.7,1.1
			s-1.1,1.7-1.1,2.7c0,0.1,0,0.2,0,0.3c-0.1,3.6-3,6.5-6.7,6.5c-0.5,0-0.9,0-1.3-0.1c-0.1,0-0.2-0.1-0.4-0.1
			c-0.3-0.1-0.6-0.2-0.9-0.3c-0.1-0.1-0.3-0.1-0.4-0.2c-0.2-0.1-0.5-0.2-0.7-0.4c-0.1-0.1-0.2-0.2-0.4-0.3c-0.2-0.2-0.4-0.3-0.6-0.5
			c-0.1-0.1-0.2-0.3-0.3-0.4c-0.2-0.2-0.3-0.4-0.5-0.6c-0.1-0.1-0.2-0.3-0.3-0.5c-0.1-0.2-0.3-0.4-0.4-0.7c-0.1-0.2-0.1-0.4-0.2-0.5
			c-0.1-0.2-0.2-0.5-0.2-0.7s-0.1-0.4-0.1-0.6S70,28.9,70,28.7c0-0.1,0-0.2,0-0.2c0-1-0.4-2-1.1-2.7c-1.4-1.5-4-1.5-5.4,0
			c-0.7,0.7-1.1,1.7-1.1,2.7c0,0.1,0,0.1,0,0.2c0,0.2,0,0.5-0.1,0.7c0,0.2,0,0.4-0.1,0.6s-0.1,0.5-0.2,0.7c-0.1,0.2-0.1,0.4-0.2,0.6
			c-0.1,0.2-0.2,0.4-0.3,0.6s-0.2,0.3-0.3,0.5s-0.3,0.4-0.5,0.6c-0.1,0.1-0.2,0.3-0.3,0.4c-0.2,0.2-0.4,0.3-0.6,0.5
			c-0.1,0.1-0.3,0.2-0.4,0.3c-0.2,0.1-0.5,0.3-0.7,0.4c-0.1,0.1-0.3,0.2-0.4,0.2c-0.3,0.1-0.6,0.2-0.9,0.3c-0.1,0-0.3,0.1-0.4,0.1
			c-0.4,0.1-0.9,0.1-1.3,0.1c-3.6,0-6.6-2.9-6.7-6.5c0-0.1,0-0.2,0-0.3c0-1-0.4-2-1.1-2.7c-0.7-0.7-1.7-1.1-2.7-1.1
			c-2.1,0-3.8,1.7-3.8,3.8c0,3.7-3,6.7-6.7,6.7s-6.7-3-6.7-6.7c0-2.1-1.7-3.8-3.8-3.8s-3.8,1.7-3.8,3.8c0,3.7-3,6.7-6.7,6.7
			c-0.9,0-1.7-0.2-2.5-0.5c-2.5-1-4.1-3.4-4.1-6.1L7.6,20.1L7.6,20.1z M68.1,92.4V61.8h18.1v30.7L68.1,92.4L68.1,92.4z M97.9,92.4
			h-4.2V58c0-2.1-1.7-3.8-3.8-3.8H64.3c-2.1,0-3.8,1.7-3.8,3.8v34.5H14V42.6c0.1,0,0.1,0,0.2,0c4.1,0,7.8-1.8,10.4-4.6
			c2.6,2.8,6.3,4.6,10.4,4.6s7.7-1.7,10.3-4.5c2.6,2.9,6.4,4.7,10.5,4.7s7.8-1.8,10.4-4.6c0.4,0.4,0.8,0.8,1.3,1.1
			c0.3,0.3,0.6,0.6,0.9,0.8c0.5,0.4,1.1,0.6,1.6,0.9c0.3,0.2,0.6,0.4,0.9,0.5c0.6,0.3,1.2,0.4,1.8,0.6c0.3,0.1,0.6,0.2,1,0.3
			c1,0.2,2,0.3,3,0.3c4.2,0,7.9-1.8,10.5-4.7c0.6,0.7,1.4,1.3,2.1,1.9c2.1,1.5,4.7,2.4,7.4,2.5c0.3,0,0.5,0.1,0.8,0.1h0.1h0.1
			L97.9,92.4L97.9,92.4z"/>
	</g>
</g>
</svg>
