<?xml version="1.0" encoding="utf-8"?>
<!-- Generator: Adobe Illustrator 23.0.0, SVG Export Plug-In . SVG Version: 6.00 Build 0)  -->
<svg version="1.1" id="Layer_1" xmlns="http://www.w3.org/2000/svg" xmlns:xlink="http://www.w3.org/1999/xlink" x="0px" y="0px"
	 viewBox="0 0 100 100" style="enable-background:new 0 0 100 100;" xml:space="preserve">
<g>
	<path d="M31.88,5.74c1.29-1.26,2.49-2.49,3.75-3.67c0.67-0.62,1.37-1.23,2.15-1.7c1.29-0.78,2.33-0.23,3.23,0.8
		c0.91,1.05,0.79,2.05-0.12,2.99c-0.99,1.03-2.01,2.04-3.02,3.05c-4.7,4.7-9.4,9.41-14.12,14.09c-2.54,2.52-3.64,2.51-6.15,0.04
		c-1.6-1.58-3.18-3.19-4.75-4.79c-1.06-1.08-1.42-2.26-0.33-3.53c0.95-1.11,2.55-1.24,3.85-0.19c1.41,1.14,2.7,2.42,4.34,3.91
		c2.36-2.29,4.52-4.38,6.65-6.43c-1.78-2.85-5.12-4.22-8.6-3.58c-4.25,0.79-7.54,3.02-8.51,7.38c-1.24,5.52-0.03,8.37,3.7,11.5
		c3.97,3.33,12.63,2.54,15.41-3.26c0.4-0.83,0.78-1.68,1.26-2.45c0.78-1.25,1.95-1.96,3.37-1.32c1.37,0.61,1.93,2,1.47,3.35
		c-0.55,1.62-1.29,3.28-2.34,4.61c-3.99,5.05-9.27,7.34-15.69,6.29c-6.19-1.01-10.38-4.79-12.48-10.56c-2-5.49-0.91-10.65,2.9-15.16
		c5.61-6.65,14.21-7.74,21.5-2.9C30.12,4.7,30.91,5.15,31.88,5.74z"/>
	<path d="M36.29,50.72c-0.17,8.6-6.65,15.78-16.11,15.88C11.63,66.69,3.9,59.82,4.05,50.68c0.16-9.3,7.1-15.69,16.15-15.84
		C28.9,34.7,36.27,42.04,36.29,50.72z M30.8,50.52c0.01-5.99-4.36-9.93-10.61-10.27c-5.25-0.28-10.53,4.51-10.56,10.11
		c-0.04,6.28,4.49,10.69,10.47,10.87C25.64,61.4,31.1,56.08,30.8,50.52z"/>
	<path d="M20.34,68.56c8.75-0.86,16.09,8.09,16,15.52c-0.1,8.47-7.76,16.09-16.17,15.91C11.6,99.82,4.27,93.57,4.07,84.07
		C3.88,75.07,11.07,68.56,20.34,68.56z M30.8,84.25c0.16-6.74-5.76-10.56-10.48-10.66c-6.26-0.14-10.56,4.42-10.61,10.97
		c-0.04,5.14,5.02,10.43,10.24,10.29C26.24,94.68,30.91,90.1,30.8,84.25z"/>
	<path d="M68.82,14.58c7.25,0,14.5,0,21.75,0c0.71,0,1.43-0.03,2.14,0.02c2.07,0.14,3.08,1.01,3.12,2.61
		c0.04,1.55-0.99,2.53-3.02,2.8c-0.7,0.09-1.43,0.06-2.14,0.06c-14.7,0-29.41,0.01-44.11,0c-0.92,0-1.87,0.06-2.74-0.18
		c-1.4-0.39-2.3-1.45-2.27-2.92c0.03-1.45,1.14-2.1,2.46-2.28c0.91-0.12,1.83-0.1,2.75-0.1C54.11,14.58,61.46,14.58,68.82,14.58z"/>
	<path d="M69.18,48.29c7.65,0,15.31-0.01,22.96,0.01c2.78,0.01,3.62,0.53,3.68,2.13c0.08,1.84-1.16,2.79-3.87,2.79
		c-15.61,0.02-31.23,0.01-46.84,0.01c-0.41,0-0.82-0.01-1.22-0.05c-1.43-0.14-2.3-0.97-2.33-2.36c-0.03-1.39,0.78-2.3,2.22-2.46
		c0.81-0.09,1.63-0.07,2.45-0.07C53.87,48.29,61.52,48.29,69.18,48.29z"/>
	<path d="M69.18,81.78c7.65,0,15.31-0.01,22.96,0.01c2.78,0.01,3.62,0.53,3.68,2.13c0.08,1.84-1.16,2.79-3.87,2.79
		c-15.61,0.02-31.23,0.01-46.84,0.01c-0.41,0-0.82-0.01-1.22-0.05c-1.43-0.14-2.3-0.97-2.33-2.36c-0.03-1.39,0.78-2.3,2.22-2.46
		c0.81-0.09,1.63-0.07,2.45-0.07C53.87,81.78,61.52,81.78,69.18,81.78z"/>
</g>
</svg>
