<?xml version="1.0" encoding="utf-8"?>
<!-- Generator: Adobe Illustrator 23.0.0, SVG Export Plug-In . SVG Version: 6.00 Build 0)  -->
<svg version="1.1" id="Layer_1" xmlns="http://www.w3.org/2000/svg" xmlns:xlink="http://www.w3.org/1999/xlink" x="0px" y="0px"
	 viewBox="0 0 19.5 18.4" style="enable-background:new 0 0 19.5 18.4;" xml:space="preserve">
<style type="text/css">
	.st0{fill-rule:evenodd;clip-rule:evenodd;fill:#FFFFFF;}
	.st1{fill:#BCBCBC;}
</style>
<g transform="translate(-19)">
	<g>
		<polygon class="st0" points="28.8,13.4 23.7,17.1 25.6,11.2 20.5,7.5 26.8,7.5 28.8,1.6 30.7,7.5 37,7.5 31.9,11.2 33.9,17.1 		
			"/>
		<path class="st1" d="M28.8,3.2l1.4,4.1L30.4,8h0.7h4.4L32,10.5L31.3,11l0.2,0.7l1.4,4.1l-3.5-2.5l-0.6-0.4l-0.6,0.4l-3.6,2.5
			l1.4-4.1l0.2-0.7l-0.6-0.4L22.1,8h4.4h0.7l0.2-0.7L28.8,3.2 M28.8,0l-2.3,7H19l6.1,4.3l-2.3,7l6-4.3l6,4.3l-2.3-7l6-4.3H31L28.8,0
			L28.8,0z"/>
	</g>
</g>
</svg>
