<?xml version="1.0" encoding="utf-8"?>
<!-- Generator: Adobe Illustrator 19.2.1, SVG Export Plug-In . SVG Version: 6.00 Build 0)  -->
<svg version="1.1" id="Layer_1" xmlns="http://www.w3.org/2000/svg" xmlns:xlink="http://www.w3.org/1999/xlink" x="0px" y="0px"
	 viewBox="0 0 100 100" style="enable-background:new 0 0 100 100;" xml:space="preserve">
<style type="text/css">
	.st0{fill:#1CA2BD;}
</style>
<path class="st0" d="M97,0H56.6c-0.7,0-1.4,0.3-1.9,0.8L1.1,52c-1.1,1-1.1,2.8,0,3.8l42.5,43.4c1.1,1.1,2.8,1.1,3.9,0l51.6-51.9
	c0.5-0.5,0.8-1.2,0.8-1.9V2.7C99.7,1.2,98.5,0,97,0z M17.7,45.3l1.7,1.7L17.7,45.3L17.7,45.3z M45.5,91.8L8.5,54l6.8-6.5
	c3.1,3.5,11.8,12.3,36.9,37.4L45.5,91.8L45.5,91.8z M93.1,43.8L57,80.2C42.2,65.5,23.2,46.4,20,43L58.2,6.6h35L93.1,43.8L93.1,43.8z
	 M67,43.6c9.6,2.1,18-6.3,15.9-15.9c-1.1-4.8-5-8.7-9.8-9.8c-9.6-2.1-18,6.3-15.9,15.9C58.3,38.6,62.2,42.5,67,43.6z M68.7,24.3
	c4.6-0.9,8.6,3.1,7.8,7.8c-0.5,2.6-2.6,4.7-5.2,5.2c-4.6,0.9-8.7-3.1-7.8-7.8C64.1,26.9,66.2,24.8,68.7,24.3z"/>
</svg>
