<?xml version="1.0" encoding="utf-8"?>
<!-- Generator: Adobe Illustrator 23.0.0, SVG Export Plug-In . SVG Version: 6.00 Build 0)  -->
<svg version="1.1" id="Layer_1" xmlns="http://www.w3.org/2000/svg" xmlns:xlink="http://www.w3.org/1999/xlink" x="0px" y="0px"
	 viewBox="0 0 100 100" style="enable-background:new 0 0 100 100;" xml:space="preserve">
<g transform="translate(0,-952.36218)">
	<path d="M40.67,965.11c-0.47,12.3-1.92,19.51-9.08,30.15c-1.22-1.18-2.86-1.93-4.66-1.93H6.73c-3.67,0-6.73,3.06-6.73,6.73v40.39
		c0,3.67,3.06,6.73,6.73,6.73h20.2c1.89,0,3.61-0.82,4.84-2.1c0.88,0.7,1.7,1.33,2.63,1.89c1.99,1.19,4.3,1.9,7.26,2.21
		c5.91,0.61,15.23,0.15,36.89,0.25c0.77,0,1.54-0.28,2.14-0.77c4.28-3.49,6.39-7.09,7.36-10.9c0.37-0.2,0.71-0.48,0.98-0.81
		c3.25-4.06,4.56-8.75,4-12.97c0.18-0.15,0.34-0.31,0.49-0.49c3.77-4.71,4.96-10.28,3.61-14.97c2.21-2.87,3.16-6.23,2.8-9.36
		c-0.44-3.83-2.89-7.29-6.59-8.91c-0.42-0.18-0.88-0.28-1.33-0.28H64.37c1.48-11.04,0.35-21.16-3.54-28.01
		c-2.2-3.88-5.57-6.16-8.94-6.66C45.84,954.55,41.25,958.8,40.67,965.11L40.67,965.11z M54.98,965.29c3.07,5.4,4.5,16.02,2.31,27.42
		c-0.37,1.94,1.33,3.99,3.3,4h30.43c1.26,0.7,2.04,1.78,2.21,3.23c0.16,1.36-0.43,2.99-1.79,4.63H78.51c-1.78,0-3.41,1.59-3.41,3.37
		s1.64,3.39,3.41,3.37h12.3c0.26,1.9-0.21,4.3-1.75,6.73H78.51c-1.78,0-3.41,1.59-3.41,3.37s1.64,3.39,3.41,3.37h7.81
		c0.26,1.9-0.21,4.3-1.75,6.73h-6.06c-1.78,0-3.41,1.59-3.41,3.37s1.64,3.39,3.41,3.37h2.31c-0.69,1.48-1.78,2.8-3.72,4.49
		c-20.43-0.06-30.17,0.27-34.78-0.21c-2.38-0.25-3.32-0.6-4.49-1.3c-0.98-0.58-2.32-1.7-4.17-3.19v-34.12
		c10.53-14.08,13.19-23.92,13.74-38.46C48.46,959.63,53.48,962.03,54.98,965.29L54.98,965.29z M6.73,1000.07h20.2
		c-0.08,13.37,0,26.91,0,40.39H6.73V1000.07z"/>
</g>
</svg>
