<?xml version="1.0" encoding="utf-8"?>
<!-- Generator: Adobe Illustrator 23.0.0, SVG Export Plug-In . SVG Version: 6.00 Build 0)  -->
<svg version="1.1" id="Layer_1" xmlns="http://www.w3.org/2000/svg" xmlns:xlink="http://www.w3.org/1999/xlink" x="0px" y="0px"
	 viewBox="0 0 100 100" style="enable-background:new 0 0 100 100;" xml:space="preserve">
<g>
	<path d="M50.05,100c-14.26,0-28.51,0-42.77,0c-3.48,0-4.78-1.32-4.81-4.8c-0.06-7.13,0.72-14.13,3.41-20.79
		c4.39-10.9,11.81-19.13,22.19-24.6c8.31-4.38,17.21-6.1,26.57-5.15c11.86,1.21,21.89,6.21,30.08,14.88
		c5.85,6.19,9.64,13.49,11.54,21.78c1.12,4.9,1.39,9.88,1.23,14.89c-0.08,2.55-1.6,3.79-4.36,3.79C78.77,100,64.41,100,50.05,100z
		 M90.4,92.98c0.64-12.12-5.11-27.84-20.18-36.2c-14.43-8.01-29.04-7.56-42.83,1.53C15.15,66.38,9.65,78.33,9.44,92.98
		C36.53,92.98,63.41,92.98,90.4,92.98z"/>
	<path d="M28.03,19.41C28.41,13.3,31.6,6.88,39.38,2.66c8.12-4.41,18.65-3.22,25.34,2.73c10.43,9.28,9.57,24.63-1.86,32.66
		c-9.6,6.75-22.92,4.77-30.13-4.01C29.55,30.16,27.99,25.78,28.03,19.41z M65.01,20.99c-0.06-3.76-1.24-7.16-3.95-10.17
		c-4.48-4.97-12.07-6.23-18.27-2.93c-9.07,4.82-10.55,17.53-2.84,24.28c6.02,5.28,14.66,5.16,20.44-0.28
		C63.67,28.8,64.96,25.09,65.01,20.99z"/>
</g>
</svg>
